<svg width="68" height="68" viewBox="0 0 68 68" fill="none" xmlns="http://www.w3.org/2000/svg">
<path d="M24.4426 57.7215L22.9727 57.2417L23.1662 56.6216L24.5008 57.0572C24.7212 57.1292 24.9259 57.1548 25.1148 57.1342C25.3037 57.1136 25.4659 57.049 25.6012 56.9403C25.7401 56.8299 25.8412 56.6778 25.9045 56.4839C25.9738 56.2714 25.989 56.0854 25.95 55.9257C25.9146 55.7643 25.8231 55.6257 25.6758 55.51C25.5319 55.3925 25.3325 55.2922 25.0776 55.209L23.9462 54.8397L22.2585 60.0105L21.4897 59.7595L23.3828 53.9594L25.283 54.5796C25.5804 54.6766 25.8361 54.7939 26.0498 54.9312C26.2645 55.0659 26.432 55.2235 26.5524 55.4038C26.6763 55.5824 26.7491 55.7825 26.7708 56.0041C26.7925 56.2257 26.7591 56.4719 26.6707 56.7428C26.5927 56.9818 26.461 57.1783 26.2755 57.3323C26.091 57.4837 25.8699 57.5849 25.6122 57.636C25.3572 57.6879 25.0794 57.6839 24.7786 57.624L24.4426 57.7215ZM23.5213 60.4226L21.7845 59.8557L22.4228 59.372L23.7255 59.7972C23.9698 59.8769 24.1908 59.9021 24.3885 59.8726C24.5889 59.8439 24.7593 59.7673 24.8999 59.6428C25.0413 59.5155 25.1467 59.3457 25.2161 59.1332C25.2863 58.9181 25.3085 58.7197 25.2826 58.5378C25.2567 58.356 25.1753 58.1957 25.0384 58.057C24.9015 57.9183 24.7029 57.8064 24.4426 57.7215L23.3471 57.3639L23.5566 56.7491L25.0545 57.2379L25.145 57.5143C25.416 57.6293 25.6264 57.7861 25.7761 57.9848C25.9266 58.1809 26.0185 58.3989 26.0518 58.639C26.0878 58.88 26.065 59.1253 25.9835 59.3749C25.8657 59.7361 25.6863 60.0155 25.4455 60.2131C25.2082 60.409 24.9249 60.5252 24.5956 60.5617C24.2671 60.5955 23.9091 60.5492 23.5213 60.4226Z" fill="black"/>
<path fill-rule="evenodd" clip-rule="evenodd" d="M25.2426 57.1125C25.2013 57.1221 25.1584 57.1294 25.1141 57.1342C25.105 57.1352 25.0959 57.1361 25.0868 57.1369C24.9055 57.1523 24.7099 57.1257 24.5001 57.0572L23.3448 56.6802L23.9455 54.8397L25.0769 55.209C25.3318 55.2922 25.5312 55.3926 25.6751 55.51C25.8225 55.6257 25.9139 55.7643 25.9493 55.9258C25.9883 56.0854 25.9731 56.2715 25.9038 56.4839C25.8405 56.6778 25.7394 56.8299 25.6005 56.9404C25.4969 57.0235 25.3776 57.0809 25.2426 57.1125ZM24.0855 55.1153L25.0091 55.4167C25.2488 55.495 25.421 55.5847 25.5369 55.6793L25.5385 55.6806L25.5401 55.6819C25.6533 55.7708 25.7128 55.8673 25.7359 55.9726L25.7364 55.9751L25.7371 55.9776C25.7635 56.0859 25.7572 56.2289 25.6961 56.4161C25.644 56.5755 25.5651 56.6894 25.4646 56.7693L25.4642 56.7696L25.4638 56.7699C25.3639 56.8501 25.242 56.9005 25.0904 56.917C24.9383 56.9336 24.7652 56.9139 24.5679 56.8495L23.6204 56.5402L24.0855 55.1153ZM23.1433 57.2976L22.462 59.3851L23.7248 59.7972C23.9691 59.877 24.1901 59.9021 24.3878 59.8726C24.5882 59.8439 24.7586 59.7673 24.8992 59.6428C25.0407 59.5156 25.146 59.3457 25.2154 59.1333C25.2856 58.9182 25.3078 58.7197 25.2819 58.5379C25.256 58.356 25.1746 58.1957 25.0377 58.057C24.9639 57.9822 24.8721 57.9152 24.7624 57.856C24.6687 57.8055 24.5618 57.7606 24.4419 57.7215L23.1433 57.2976ZM21.489 59.7595L23.3821 53.9594L25.2823 54.5796C25.5798 54.6767 25.8354 54.7939 26.0491 54.9313C26.2638 55.066 26.4313 55.2235 26.5517 55.4039C26.6756 55.5824 26.7484 55.7825 26.7701 56.0041C26.7918 56.2257 26.7585 56.472 26.67 56.7428C26.592 56.9819 26.4603 57.1784 26.2749 57.3324C26.117 57.4618 25.9323 57.5546 25.7209 57.6107C25.6852 57.6202 25.6488 57.6286 25.6115 57.636C25.5513 57.6483 25.4897 57.6574 25.4269 57.6635C25.5107 57.7181 25.586 57.7785 25.6529 57.8448C25.6534 57.8453 25.6539 57.8457 25.6544 57.8462C25.6555 57.8473 25.6566 57.8485 25.6578 57.8496C25.7004 57.8923 25.7396 57.9374 25.7754 57.9848C25.9259 58.1809 26.0178 58.399 26.0511 58.6391C26.0871 58.88 26.0643 59.1253 25.9828 59.3749C25.865 59.7361 25.6856 60.0155 25.4448 60.2132C25.2075 60.409 24.9242 60.5252 24.5949 60.5617C24.2665 60.5956 23.9084 60.5492 23.5206 60.4227L21.489 59.7595ZM25.5836 60.3819C25.311 60.6068 24.987 60.7381 24.619 60.7789L24.6181 60.779L24.6173 60.7791C24.2522 60.8167 23.863 60.7643 23.4528 60.6304L21.2134 59.8995L23.2422 53.6838L25.3501 54.3719C25.6609 54.4733 25.9339 54.5976 26.1663 54.7468C26.4016 54.8946 26.5925 55.0719 26.7323 55.2809C26.8773 55.4904 26.9624 55.7257 26.9876 55.9828C27.0129 56.2416 26.973 56.5188 26.8778 56.8107C26.7875 57.0871 26.633 57.319 26.4145 57.5005L26.4139 57.5009L26.4134 57.5014C26.2605 57.6267 26.0874 57.7213 25.8961 57.786C25.9145 57.8077 25.9322 57.8299 25.9493 57.8525C26.1218 58.0775 26.2287 58.3303 26.2674 58.6079C26.3085 58.8846 26.2816 59.1638 26.1906 59.4427C26.0627 59.8347 25.863 60.1526 25.5836 60.3819ZM23.2832 57.5732L22.7375 59.2451L23.7926 59.5895C24.0136 59.6616 24.1996 59.6797 24.3556 59.6565L24.3562 59.6564L24.3569 59.6563C24.518 59.6332 24.6477 59.5734 24.7537 59.4798C24.8617 59.3824 24.9482 59.2476 25.0077 59.0655C25.0699 58.8749 25.0858 58.7106 25.0656 58.5686C25.0467 58.4361 24.9883 58.3181 24.8822 58.2105C24.7776 58.1046 24.6139 58.0075 24.3741 57.9292L23.2832 57.5732Z" fill="black"/>
<path d="M28.625 55.5635L30.633 55.7812C31.0885 55.8305 31.4657 55.9417 31.7644 56.1146C32.066 56.2877 32.284 56.5193 32.4183 56.8093C32.5558 57.0967 32.6031 57.4376 32.5604 57.832C32.5303 58.1098 32.4458 58.3577 32.3069 58.5759C32.1711 58.7916 31.989 58.9686 31.7604 59.1068C31.535 59.2425 31.2722 59.3334 30.9721 59.3796L30.7377 59.4427L28.8505 59.2381L28.9131 58.5831L30.3378 58.7376C30.6267 58.7689 30.8723 58.7449 31.0748 58.6657C31.2776 58.5837 31.4369 58.4619 31.5528 58.3003C31.6687 58.1386 31.7379 57.9536 31.7605 57.7453C31.7858 57.512 31.7621 57.3029 31.6894 57.118C31.6167 56.9331 31.4869 56.7827 31.2999 56.6669C31.116 56.5487 30.87 56.4728 30.5617 56.4394L29.3577 56.3089L28.7715 61.7164L27.9675 61.6292L28.625 55.5635ZM31.5128 62.0136L30.336 59.1041L31.1739 59.1907L32.3764 62.0566L32.371 62.1066L31.5128 62.0136Z" fill="black"/>
<path fill-rule="evenodd" clip-rule="evenodd" d="M28.4316 55.3226L30.6569 55.5639C31.1331 55.6155 31.5417 55.733 31.8739 55.9252C32.2105 56.1186 32.4614 56.3822 32.6164 56.7162C32.7747 57.048 32.824 57.4311 32.778 57.8555C32.7445 58.1637 32.65 58.4441 32.4919 58.6927C32.3372 58.9384 32.1299 59.1389 31.8738 59.2937L31.8737 59.2938L31.8735 59.2939C31.7642 59.3597 31.6479 59.4156 31.525 59.4619L32.6001 62.024L32.565 62.3473L31.3595 62.2167L30.3076 59.6158L29.232 59.4992L28.9655 61.9572L27.727 61.8229L28.4316 55.3226ZM29.0383 59.2584L30.4612 59.4126L31.5131 62.0135L32.3713 62.1065L32.3767 62.0566L31.2311 59.3263C31.3034 59.3073 31.3732 59.2853 31.4404 59.2603C31.5545 59.2178 31.6612 59.1666 31.7608 59.1067C31.9893 58.9685 32.1715 58.7916 32.3072 58.5759C32.4461 58.3577 32.5306 58.1097 32.5607 57.832C32.6035 57.4376 32.5561 57.0967 32.4187 56.8092C32.2843 56.5193 32.0664 56.2877 31.7648 56.1145C31.466 55.9416 31.0889 55.8305 30.6334 55.7811L28.6253 55.5634L27.9678 61.6292L28.7718 61.7164L29.0383 59.2584ZM29.1092 58.6043L30.3382 58.7375C30.627 58.7689 30.8727 58.7449 31.0752 58.6657C31.2779 58.5837 31.4373 58.4619 31.5531 58.3002C31.669 58.1386 31.7382 57.9536 31.7608 57.7453C31.7861 57.512 31.7624 57.3029 31.6897 57.118C31.617 56.9331 31.4872 56.7827 31.3003 56.6669C31.1164 56.5486 30.8703 56.4728 30.562 56.4393L29.358 56.3088L29.1092 58.6043ZM29.5517 56.5496L29.35 58.4106L30.3617 58.5203C30.6262 58.549 30.834 58.5251 30.9944 58.4626C31.1622 58.3946 31.2864 58.2973 31.3755 58.1729C31.4683 58.0435 31.5248 57.8947 31.5436 57.7217C31.5657 57.5172 31.544 57.3445 31.4864 57.1979C31.4328 57.0616 31.3366 56.9464 31.1852 56.8527L31.1836 56.8517L31.182 56.8507C31.0361 56.7568 30.8262 56.6878 30.5385 56.6566L29.5517 56.5496Z" fill="black"/>
<path d="M37.7088 55.8775L38.509 55.7938L38.9384 59.899C38.9861 60.3547 38.9243 60.7445 38.7532 61.0686C38.582 61.3927 38.3363 61.6487 38.0161 61.8367C37.6984 62.0216 37.3437 62.1345 36.9519 62.1755C36.5407 62.2185 36.1605 62.1825 35.8114 62.0673C35.4648 61.9491 35.1784 61.7487 34.9522 61.4662C34.7288 61.1834 34.5933 60.8142 34.5456 60.3585L34.1162 56.2533L34.9122 56.17L35.3417 60.2752C35.3748 60.592 35.4605 60.847 35.5987 61.0404C35.7369 61.2338 35.9154 61.3697 36.1342 61.4479C36.3559 61.5258 36.6056 61.5503 36.8835 61.5212C37.1641 61.4918 37.4034 61.4162 37.6013 61.2944C37.802 61.1723 37.9499 61.0023 38.0451 60.7845C38.1403 60.5667 38.1713 60.2994 38.1382 59.9827L37.7088 55.8775Z" fill="black"/>
<path fill-rule="evenodd" clip-rule="evenodd" d="M37.4685 55.6828L38.7034 55.5536L39.1556 59.8762C39.2066 60.3641 39.1421 60.7996 38.9462 61.1705C38.7559 61.531 38.4814 61.8168 38.1266 62.025L38.1262 62.0252L38.1259 62.0254C37.7796 62.227 37.3948 62.3488 36.9745 62.3928C36.5364 62.4386 36.1247 62.4007 35.7428 62.2747L35.7418 62.2744L35.7407 62.274C35.3552 62.1425 35.034 61.918 34.7815 61.6027L34.781 61.6021L34.7806 61.6015C34.5254 61.2785 34.3789 60.8669 34.3281 60.3811L33.876 56.0586L35.1067 55.9299L35.5588 60.2524C35.5893 60.5438 35.6663 60.7594 35.7763 60.9133C35.8891 61.0712 36.0315 61.1789 36.2071 61.2418C36.3929 61.307 36.6091 61.3301 36.8606 61.3038C37.1155 61.2771 37.3219 61.2096 37.4866 61.1082L37.4871 61.1079L37.4875 61.1076C37.6494 61.0092 37.7673 60.8741 37.8447 60.6969C37.9205 60.5236 37.9512 60.2968 37.9207 60.0053L37.4685 55.6828ZM36.1341 61.4478C35.9152 61.3696 35.7367 61.2337 35.5985 61.0403C35.4603 60.8469 35.3746 60.5919 35.3415 60.2751L34.9121 56.1699L34.116 56.2532L34.5455 60.3584C34.5931 60.8141 34.7287 61.1833 34.9521 61.4661C35.1782 61.7486 35.4646 61.949 35.8113 62.0672C36.1604 62.1824 36.5405 62.2184 36.9517 62.1754C37.3435 62.1344 37.6982 62.0215 38.016 61.8366C38.3362 61.6486 38.5819 61.3926 38.753 61.0685C38.9242 60.7444 38.9859 60.3546 38.9382 59.8989L38.5088 55.7937L37.7086 55.8774L38.138 59.9826C38.1712 60.2993 38.1401 60.5666 38.045 60.7844C37.9498 61.0022 37.8018 61.1722 37.6011 61.2943C37.4032 61.4161 37.1639 61.4917 36.8833 61.5211C36.6054 61.5502 36.3557 61.5257 36.1341 61.4478Z" fill="black"/>
<path d="M40.2617 55.1682L42.1812 54.5397C42.6166 54.3971 43.0061 54.3431 43.3496 54.3776C43.6957 54.4113 43.9897 54.5325 44.2315 54.7414C44.4751 54.9468 44.6587 55.238 44.7821 55.615C44.869 55.8805 44.8941 56.1412 44.8574 56.3972C44.8225 56.6497 44.7294 56.886 44.578 57.106C44.4285 57.3225 44.2265 57.5136 43.972 57.6792L43.7844 57.8333L41.9804 58.424L41.7677 57.8014L43.1296 57.3554C43.4058 57.265 43.6198 57.142 43.7717 56.9864C43.9227 56.8282 44.0177 56.6516 44.0567 56.4566C44.0958 56.2615 44.0827 56.0645 44.0175 55.8653C43.9445 55.6423 43.8368 55.4615 43.6944 55.323C43.552 55.1844 43.3718 55.1008 43.1537 55.0723C42.9374 55.0402 42.682 55.0724 42.3873 55.1689L41.2363 55.5458L42.9289 60.7149L42.1603 60.9666L40.2617 55.1682ZM45.5493 59.8569L43.2789 57.6901L44.0781 57.424L46.3541 59.5405L46.3697 59.5883L45.5493 59.8569Z" fill="black"/>
<path fill-rule="evenodd" clip-rule="evenodd" d="M39.9854 55.0287L42.1125 54.3322C42.5678 54.1831 42.9885 54.122 43.3704 54.1603C43.7567 54.1979 44.0939 54.3349 44.3727 54.5754C44.6536 54.8126 44.8562 55.1414 44.9891 55.5471C45.0855 55.8417 45.1149 56.1362 45.0731 56.4278C45.0333 56.7154 44.927 56.9834 44.7574 57.23L44.7573 57.2302L44.7571 57.2304C44.6846 57.3353 44.6017 57.4342 44.5088 57.5269L46.5435 59.419L46.6447 59.7281L45.4924 60.1054L43.4628 58.1685L42.4345 58.5051L43.2039 60.8547L42.0199 61.2424L39.9854 55.0287ZM42.1589 58.3655L43.519 57.9201L45.5486 59.8571L46.369 59.5884L46.3534 59.5406L44.1851 57.5243C44.2432 57.4773 44.2977 57.4285 44.3486 57.378C44.4351 57.2924 44.5113 57.2017 44.5773 57.1062C44.7287 56.8861 44.8218 56.6498 44.8568 56.3974C44.8935 56.1414 44.8683 55.8806 44.7814 55.6151C44.658 55.2381 44.4744 54.9469 44.2308 54.7416C43.989 54.5327 43.695 54.4114 43.3489 54.3778C43.0054 54.3433 42.616 54.3973 42.1805 54.5398L40.261 55.1684L42.1596 60.9667L42.9282 60.7151L42.1589 58.3655ZM41.9541 57.7402L43.129 57.3555C43.4051 57.2651 43.6191 57.1421 43.771 56.9866C43.922 56.8284 44.017 56.6518 44.056 56.4567C44.0951 56.2617 44.082 56.0646 44.0168 55.8655C43.9438 55.6425 43.8361 55.4617 43.6937 55.3231C43.5513 55.1845 43.3711 55.101 43.153 55.0724C42.9368 55.0404 42.6813 55.0726 42.3866 55.1691L41.2357 55.5459L41.9541 57.7402ZM41.5113 55.6856L42.0938 57.4645L43.061 57.1479C43.3138 57.0651 43.4933 56.9578 43.6138 56.8348C43.7386 56.7037 43.8117 56.5639 43.8418 56.4138C43.873 56.2577 43.8632 56.0988 43.8091 55.9335C43.7451 55.738 43.6541 55.5896 43.5413 55.4797C43.4363 55.3775 43.3012 55.3122 43.1247 55.2891L43.1228 55.2889L43.121 55.2886C42.9493 55.2631 42.7296 55.2867 42.4546 55.3767L41.5113 55.6856Z" fill="black"/>
<path d="M14.7035 48.2112L14.1977 47.609C14.5126 47.398 14.8402 47.2637 15.1805 47.2062C15.5208 47.1486 15.8606 47.1859 16.1998 47.3181C16.537 47.4522 16.8592 47.7021 17.1665 48.068C17.3913 48.3356 17.5457 48.6214 17.6297 48.9252C17.712 49.227 17.727 49.5335 17.6747 49.8448C17.6203 50.1579 17.4994 50.4662 17.3122 50.7697C17.121 51.0728 16.8655 51.3587 16.5456 51.6274L16.0909 52.0093C15.771 52.278 15.4462 52.4794 15.1167 52.6135C14.7834 52.7473 14.4569 52.8128 14.1374 52.8102C13.8161 52.8055 13.5104 52.7324 13.2204 52.5909C12.9304 52.4493 12.6669 52.2374 12.4298 51.9552C12.1401 51.6102 11.9599 51.2641 11.8894 50.9168C11.8188 50.5696 11.8432 50.2335 11.9626 49.9086C12.0781 49.5834 12.2733 49.2787 12.548 48.9945L13.0537 49.5966C12.8651 49.805 12.7278 50.013 12.6419 50.2207C12.5539 50.4301 12.5295 50.6431 12.5688 50.8597C12.6081 51.0763 12.7269 51.3027 12.9254 51.539C13.0957 51.7418 13.2845 51.8881 13.4918 51.9778C13.6974 52.0655 13.9151 52.1019 14.1451 52.087C14.3733 52.0701 14.6087 52.0043 14.8512 51.8898C15.0938 51.7752 15.3363 51.6161 15.5789 51.4124L16.0399 51.0252C16.2636 50.8373 16.4544 50.6379 16.6124 50.4268C16.7685 50.2136 16.8804 49.9966 16.9481 49.7758C17.0158 49.5549 17.0301 49.3343 16.9912 49.1138C16.9502 48.8951 16.8445 48.6844 16.6741 48.4816C16.4581 48.2244 16.2453 48.0537 16.0356 47.9696C15.8258 47.8854 15.6122 47.8687 15.3945 47.9196C15.1752 47.9683 14.9448 48.0655 14.7035 48.2112Z" fill="black"/>
<path fill-rule="evenodd" clip-rule="evenodd" d="M14.6558 48.4948L13.8732 47.563L14.0756 47.4274C14.4136 47.201 14.7698 47.0539 15.1435 46.9907C15.5249 46.9261 15.9047 46.9688 16.2786 47.1145L16.2793 47.1148L16.28 47.1151C16.6597 47.266 17.0099 47.5423 17.3333 47.9275C17.5761 48.2165 17.7466 48.5298 17.8398 48.867L17.8399 48.8673L17.84 48.8677C17.9307 49.2003 17.9471 49.5388 17.8896 49.881L17.8895 49.8816L17.8894 49.8822C17.8297 50.2259 17.6977 50.5602 17.4976 50.8844L17.497 50.8853L17.4965 50.8862C17.2915 51.2114 17.02 51.5139 16.6856 51.7947L16.2309 52.1767C15.8965 52.4575 15.5525 52.6718 15.1986 52.8159L15.1981 52.8161L15.1976 52.8163C14.8411 52.9594 14.4864 53.0316 14.1351 53.0287L14.1343 53.0287L14.1336 53.0287C13.7801 53.0235 13.4428 52.9428 13.124 52.7872C12.8029 52.6305 12.5159 52.398 12.2619 52.0957C11.955 51.7302 11.7542 51.3517 11.6747 50.9603C11.5964 50.5748 11.6232 50.1979 11.7565 49.8344C11.884 49.4762 12.0974 49.1457 12.3904 48.8426L12.5589 48.6682L13.3431 49.602L13.2152 49.7433C13.0393 49.9376 12.9175 50.1247 12.8432 50.3042L12.843 50.3048L12.8428 50.3053C12.7706 50.477 12.7518 50.6471 12.7833 50.8207C12.8136 50.9878 12.9089 51.1802 13.0921 51.3984C13.2443 51.5796 13.4065 51.7029 13.5776 51.7771C13.7502 51.8506 13.9331 51.8816 14.1294 51.869C14.3264 51.8542 14.5354 51.797 14.7574 51.6922C14.9802 51.5869 15.2071 51.4388 15.4378 51.2451L15.8988 50.8579C16.1108 50.6799 16.2895 50.4927 16.4362 50.2968C16.5796 50.1008 16.6792 49.9058 16.7386 49.7117C16.7964 49.5232 16.8082 49.3379 16.7757 49.153C16.7426 48.9781 16.6567 48.8012 16.5063 48.6221C16.303 48.3801 16.1177 48.2382 15.9536 48.1724C15.785 48.1047 15.6171 48.0919 15.4437 48.1324L15.4426 48.1326L15.4414 48.1329C15.2502 48.1754 15.0418 48.2618 14.8158 48.3982L14.6558 48.4948ZM16.9907 49.1138C17.0296 49.3343 17.0152 49.5549 16.9476 49.7758C16.8799 49.9966 16.768 50.2136 16.6118 50.4268C16.4539 50.6378 16.2631 50.8373 16.0394 51.0252L15.5783 51.4124C15.3358 51.6161 15.0932 51.7752 14.8507 51.8898C14.6082 52.0043 14.3728 52.0701 14.1446 52.087C13.9146 52.1019 13.6968 52.0655 13.4913 51.9778C13.284 51.8881 13.0951 51.7418 12.9248 51.539C12.7264 51.3027 12.6075 51.0763 12.5682 50.8597C12.529 50.6431 12.5533 50.4301 12.6413 50.2207C12.7272 50.013 12.8645 49.805 13.0532 49.5966L12.5475 48.9945C12.4954 49.0484 12.4461 49.103 12.3998 49.1584C12.2016 49.395 12.0557 49.6451 11.9621 49.9086C11.8427 50.2335 11.8183 50.5696 11.8888 50.9168C11.9594 51.264 12.1395 51.6102 12.4293 51.9552C12.6663 52.2374 12.9299 52.4493 13.2199 52.5908C13.5099 52.7324 13.8155 52.8055 14.1368 52.8102C14.4564 52.8128 14.7828 52.7473 15.1162 52.6135C15.4457 52.4794 15.7704 52.278 16.0903 52.0093L16.5451 51.6274C16.865 51.3587 17.1205 51.0728 17.3116 50.7697C17.4989 50.4662 17.6197 50.1579 17.6741 49.8448C17.7264 49.5335 17.7114 49.2269 17.6292 48.9252C17.5452 48.6214 17.3908 48.3356 17.166 48.068C16.8587 47.7021 16.5365 47.4521 16.1993 47.3181C15.86 47.1859 15.5202 47.1486 15.1799 47.2061C14.9068 47.2524 14.6419 47.348 14.3852 47.493C14.322 47.5287 14.2593 47.5673 14.1972 47.609L14.7029 48.2111C14.9443 48.0655 15.1746 47.9683 15.394 47.9196C15.6116 47.8687 15.8253 47.8854 16.035 47.9695C16.2447 48.0537 16.4576 48.2244 16.6736 48.4815C16.8439 48.6844 16.9496 48.8951 16.9907 49.1138Z" fill="black"/>
<path d="M12.3216 43.2259C12.1968 43.2877 12.0964 43.3618 12.0203 43.4482C11.9406 43.5334 11.8852 43.6431 11.8542 43.7773C11.8219 43.909 11.8115 44.0757 11.823 44.2772C11.8332 44.4763 11.864 44.72 11.9154 45.0084C11.968 45.3114 11.9992 45.593 12.0092 45.8532C12.0168 46.1145 11.9957 46.3519 11.946 46.5654C11.8964 46.7789 11.8108 46.966 11.6893 47.1268C11.5678 47.2875 11.403 47.4193 11.195 47.5223C10.987 47.6253 10.7738 47.6776 10.5552 47.6792C10.3366 47.6808 10.1231 47.6342 9.91464 47.5394C9.70254 47.4433 9.50465 47.3021 9.32098 47.1158C9.13731 46.9295 8.97763 46.6993 8.84192 46.4253C8.6432 46.024 8.55186 45.6457 8.56788 45.2904C8.58024 44.9339 8.67364 44.621 8.84807 44.3518C9.02006 44.0839 9.24552 43.8808 9.52447 43.7427L9.87343 44.4474C9.67279 44.5467 9.51659 44.6774 9.40485 44.8394C9.29066 45.0026 9.23253 45.1928 9.23047 45.4102C9.22597 45.6287 9.28975 45.8714 9.42183 46.1381C9.54663 46.3901 9.68755 46.5793 9.84458 46.7057C10.0016 46.8321 10.165 46.9035 10.3346 46.9201C10.5031 46.9341 10.6705 46.9 10.8369 46.8176C10.9495 46.7618 11.0407 46.6877 11.1107 46.5952C11.177 46.5014 11.2244 46.385 11.2531 46.2459C11.2805 46.1043 11.2884 45.9389 11.277 45.7496C11.2643 45.5578 11.234 45.3367 11.1861 45.0862C11.1215 44.7404 11.0873 44.4313 11.0834 44.159C11.0796 43.8867 11.1086 43.6468 11.1705 43.4395C11.2287 43.2309 11.324 43.0511 11.4564 42.9002C11.5852 42.7481 11.7536 42.6205 11.9616 42.5175C12.1794 42.4097 12.3982 42.3562 12.618 42.357C12.8378 42.3579 13.0507 42.4094 13.2566 42.5115C13.4626 42.6137 13.6568 42.7628 13.8392 42.9589C14.0179 43.1537 14.177 43.3918 14.3163 43.6732C14.4387 43.9203 14.525 44.1808 14.5753 44.4545C14.6243 44.7258 14.6287 44.9932 14.5887 45.2568C14.5474 45.518 14.4555 45.7569 14.313 45.9738C14.1668 46.1893 13.9604 46.3632 13.6937 46.4952L13.3447 45.7905C13.5283 45.6996 13.6685 45.586 13.7655 45.4496C13.86 45.3144 13.9198 45.1645 13.9449 44.9997C13.9687 44.8325 13.9627 44.6603 13.9267 44.4831C13.8871 44.3047 13.8249 44.1298 13.7401 43.9586C13.6177 43.7114 13.4799 43.5192 13.3265 43.3818C13.1732 43.2445 13.0111 43.1633 12.8403 43.1382C12.6682 43.1107 12.4953 43.1399 12.3216 43.2259Z" fill="black"/>
<path fill-rule="evenodd" clip-rule="evenodd" d="M12.1824 43.595L12.1801 43.5975C12.1311 43.6499 12.0913 43.7229 12.0673 43.8265L12.067 43.8278L12.0667 43.8292C12.0414 43.9323 12.0306 44.0754 12.0414 44.2648L12.0414 44.2653L12.0414 44.2659C12.051 44.4528 12.0803 44.6868 12.1308 44.97L12.1308 44.9705L12.1309 44.971C12.1849 45.2819 12.2174 45.5733 12.2278 45.8447L12.2278 45.8457L12.2279 45.8468C12.2359 46.1234 12.2137 46.38 12.1591 46.6149C12.1031 46.8555 12.0054 47.0712 11.8638 47.2585C11.7189 47.4501 11.526 47.6023 11.2922 47.7181C11.0565 47.8348 10.8107 47.8958 10.557 47.8976C10.3052 47.8995 10.0604 47.8456 9.82454 47.7383C9.58523 47.6299 9.36573 47.4722 9.16558 47.2691C8.96311 47.0637 8.79063 46.8136 8.64631 46.5221C8.43557 46.0966 8.33193 45.6819 8.34975 45.2816C8.36348 44.8907 8.46669 44.539 8.66464 44.2333C8.85748 43.933 9.11257 43.7028 9.42772 43.5468L9.62354 43.4498L10.1665 44.5462L9.97062 44.6431C9.79861 44.7283 9.67284 44.836 9.58494 44.9634L9.58453 44.964L9.58411 44.9646C9.49753 45.0883 9.45089 45.2347 9.44921 45.4122L9.4492 45.4134L9.44917 45.4146C9.44561 45.5876 9.49604 45.795 9.61788 46.041C9.73382 46.2752 9.8572 46.4351 9.98181 46.5354C10.1113 46.6396 10.235 46.6904 10.3546 46.7023C10.479 46.7125 10.6064 46.6879 10.7402 46.6217C10.8236 46.5803 10.8869 46.5281 10.9345 46.4661C10.9787 46.4026 11.0154 46.317 11.039 46.203C11.0618 46.0845 11.0697 45.9388 11.0591 45.7633C11.0471 45.583 11.0183 45.3712 10.9717 45.1271L10.9716 45.1267L10.9715 45.1262C10.9052 44.7715 10.8692 44.4497 10.8652 44.162C10.8611 43.8737 10.8915 43.6116 10.9607 43.3788C11.0269 43.1426 11.1365 42.9341 11.2911 42.7575C11.442 42.5798 11.6351 42.4354 11.8649 42.3216C12.1098 42.2003 12.3619 42.1374 12.619 42.1384C12.8738 42.1394 13.1195 42.1994 13.3539 42.3157C13.5871 42.4313 13.802 42.5977 13.9994 42.8099L13.9999 42.8105L14.0004 42.8111C14.1955 43.0236 14.3656 43.2796 14.5124 43.5762C14.6439 43.8417 14.7366 44.1215 14.7904 44.415L14.7905 44.4153L14.7905 44.4156C14.8437 44.7097 14.8487 45.0014 14.8049 45.2896L14.8048 45.2902L14.8047 45.2909C14.7587 45.5821 14.6557 45.8504 14.4958 46.0937L14.495 46.095L14.4941 46.0963C14.3239 46.3473 14.0865 46.5446 13.7909 46.691L13.5951 46.7879L13.0522 45.6916L13.248 45.5946C13.406 45.5164 13.5152 45.4244 13.5872 45.3236C13.6618 45.2167 13.7088 45.099 13.7289 44.9678C13.7488 44.8279 13.7441 44.6818 13.7132 44.5285C13.6776 44.3686 13.6215 44.211 13.5445 44.0555C13.4305 43.8253 13.3078 43.6582 13.181 43.5445C13.0533 43.4302 12.9296 43.372 12.8087 43.3543L12.8073 43.3541L12.806 43.3539C12.6837 43.3343 12.5566 43.3534 12.4188 43.4217C12.3142 43.4734 12.2383 43.5314 12.1846 43.5925L12.1824 43.595ZM13.927 44.4831C13.9629 44.6603 13.969 44.8325 13.9451 44.9997C13.9201 45.1644 13.8603 45.3144 13.7657 45.4495C13.6687 45.5859 13.5285 45.6996 13.345 45.7904L13.6939 46.4951C13.7612 46.4618 13.8247 46.4258 13.8843 46.3872C14.061 46.2727 14.2039 46.1349 14.3132 45.9737C14.4557 45.7569 14.5476 45.5179 14.5889 45.2567C14.629 44.9931 14.6245 44.7257 14.5755 44.4544C14.5252 44.1807 14.4389 43.9203 14.3166 43.6731C14.1772 43.3917 14.0182 43.1536 13.8394 42.9588C13.657 42.7627 13.4628 42.6136 13.2568 42.5114C13.0509 42.4093 12.838 42.3578 12.6182 42.357C12.3984 42.3561 12.1796 42.4096 11.9618 42.5175C11.7539 42.6204 11.5855 42.748 11.4567 42.9002C11.3242 43.0511 11.2289 43.2308 11.1707 43.4394C11.1088 43.6467 11.0798 43.8866 11.0837 44.1589C11.0875 44.4312 11.1217 44.7403 11.1863 45.0861C11.2342 45.3366 11.2645 45.5578 11.2772 45.7495C11.2887 45.9388 11.2807 46.1043 11.2533 46.2458C11.2247 46.3849 11.1772 46.5013 11.1109 46.5951C11.0409 46.6876 10.9497 46.7618 10.8371 46.8175C10.6707 46.8999 10.5033 46.9341 10.3349 46.92C10.1652 46.9034 10.0018 46.832 9.84481 46.7056C9.68777 46.5792 9.54685 46.39 9.42205 46.138C9.28998 45.8713 9.22619 45.6287 9.2307 45.4101C9.23275 45.1928 9.29088 45.0025 9.40507 44.8393C9.51681 44.6773 9.67301 44.5467 9.87365 44.4473L9.52469 43.7426C9.45845 43.7754 9.39522 43.8119 9.33501 43.852C9.14168 43.9808 8.97944 44.1474 8.84829 44.3518C8.67386 44.621 8.58046 44.9338 8.5681 45.2903C8.55208 45.6456 8.64342 46.0239 8.84214 46.4252C8.97785 46.6992 9.13754 46.9294 9.32121 47.1157C9.50487 47.302 9.70276 47.4432 9.91486 47.5393C10.1233 47.6341 10.3368 47.6807 10.5554 47.6791C10.774 47.6775 10.9873 47.6252 11.1953 47.5222C11.4032 47.4192 11.568 47.2874 11.6895 47.1267C11.811 46.966 11.8966 46.7788 11.9463 46.5653C11.9959 46.3518 12.017 46.1144 12.0094 45.8531C11.9995 45.5929 11.9682 45.3114 11.9156 45.0083C11.8642 44.7199 11.8334 44.4762 11.8232 44.2771C11.8118 44.0756 11.8222 43.909 11.8544 43.7772C11.8855 43.643 11.9408 43.5333 12.0205 43.4482C12.0966 43.3618 12.197 43.2877 12.3218 43.2259C12.4955 43.1398 12.6684 43.1106 12.8405 43.1381C13.0113 43.1632 13.1734 43.2444 13.3268 43.3818C13.4801 43.5191 13.6179 43.7114 13.7403 43.9585C13.8251 44.1298 13.8874 44.3046 13.927 44.4831Z" fill="black"/>
<path d="M11.4946 37.293L12.1198 37.1426L12.8584 40.2128L12.2332 40.3632L11.4946 37.293ZM7.02312 41.4523L12.821 40.0575L13.0059 40.826L7.20801 42.2208L7.02312 41.4523ZM8.91236 38.3439L9.53755 38.1935L10.1784 40.8575L9.55325 41.0079L8.91236 38.3439ZM6.33146 38.5772L6.96062 38.4259L7.68964 41.4562L7.06048 41.6076L6.33146 38.5772Z" fill="black"/>
<path fill-rule="evenodd" clip-rule="evenodd" d="M11.2312 37.1318L12.2813 36.8791L13.2697 40.9875L7.04688 42.4845L6.0681 38.416L7.12219 38.1624L7.81385 41.0375L9.25253 40.6913L8.649 38.1826L9.69911 37.93L10.3026 40.4387L11.9325 40.0466L11.2312 37.1318ZM12.196 40.208L11.4948 37.2931L12.12 37.1427L13.0061 40.8261L7.20822 42.2209L6.33167 38.5773L6.96084 38.426L7.6525 41.301L9.5161 40.8527L8.91258 38.344L9.53776 38.1936L10.1413 40.7023L12.196 40.208Z" fill="black"/>
<path d="M6.71986 31.0776L11.9265 33.593L11.8446 34.3956L6.14272 31.5293L6.19549 31.0118L6.71986 31.0776ZM12.2946 29.9829L6.68704 31.3995L6.16017 31.3581L6.21295 30.8407L12.3769 29.1762L12.2946 29.9829ZM10.0881 29.8608L10.7319 29.9265L10.392 33.2594L9.74819 33.1938L10.0881 29.8608Z" fill="black"/>
<path fill-rule="evenodd" clip-rule="evenodd" d="M6.21349 30.8407L12.3775 29.1761L12.2952 29.9829L10.6852 30.3896L10.4321 32.8708L11.927 33.5929L11.8452 34.3956L6.14327 31.5293L6.21349 30.8407ZM9.81222 32.5713L10.0175 30.5583L7.14665 31.2835L9.81222 32.5713ZM9.62646 32.2388L9.76844 30.8466L7.78287 31.3482L9.62646 32.2388ZM5.9106 31.6569L12.0304 34.7333L12.16 33.4628L10.6651 32.7406L10.887 30.564L12.4971 30.1573L12.6271 28.8824L6.01135 30.6689L5.9106 31.6569Z" fill="black"/>
<path d="M13.2444 24.7369L13.8526 24.9457L12.8844 27.7658L12.2762 27.557L13.2444 24.7369ZM7.29477 25.6822L12.9349 27.6186L12.6782 28.3662L7.03809 26.4298L7.29477 25.6822Z" fill="black"/>
<path fill-rule="evenodd" clip-rule="evenodd" d="M13.109 24.4593L14.1305 24.81L12.8143 28.6439L6.76074 26.5656L7.15934 25.4046L12.1913 27.1322L13.109 24.4593ZM12.327 27.4098L13.2447 24.7369L13.8529 24.9457L12.6785 28.3662L7.03838 26.4298L7.29506 25.6822L12.327 27.4098Z" fill="black"/>
<path d="M11.03 18.0088L11.4476 17.3424L14.866 19.4847C15.2455 19.7225 15.5084 20.0049 15.6547 20.3318C15.8011 20.6587 15.8502 21.0021 15.802 21.3618C15.7529 21.7177 15.6262 22.0588 15.4217 22.385C15.2071 22.7274 14.9504 22.9983 14.6515 23.1977C14.3517 23.3932 14.0249 23.493 13.6712 23.4969C13.319 23.4985 12.9532 23.3804 12.5737 23.1426L9.15527 21.0004L9.57068 20.3375L12.9891 22.4798C13.2529 22.645 13.5008 22.7327 13.7329 22.7429C13.965 22.753 14.1771 22.6974 14.3691 22.5761C14.5626 22.4524 14.7319 22.2749 14.8769 22.0435C15.0233 21.8099 15.1092 21.5802 15.1347 21.3544C15.1616 21.1264 15.1199 20.9101 15.0096 20.7057C14.8993 20.5012 14.7122 20.3163 14.4485 20.151L11.03 18.0088Z" fill="black"/>
<path fill-rule="evenodd" clip-rule="evenodd" d="M10.7292 18.078L11.3789 17.0413L14.9825 19.2996C15.3894 19.5546 15.6866 19.8673 15.8546 20.2426C16.0178 20.6071 16.0725 20.9915 16.019 21.3909L16.0189 21.3913L16.0189 21.3917C15.9653 21.7804 15.827 22.1506 15.6073 22.5011C15.3784 22.8665 15.1008 23.161 14.7731 23.3795L14.7722 23.3802L14.7713 23.3808C14.4371 23.5988 14.0699 23.7111 13.6741 23.7155L13.6734 23.7155L13.6727 23.7155C13.2692 23.7173 12.8632 23.5817 12.4581 23.3279L8.85449 21.0696L9.50197 20.0364L13.1056 22.2947C13.3478 22.4465 13.5592 22.5166 13.7429 22.5246C13.9313 22.5329 14.099 22.4885 14.2523 22.3917C14.4137 22.2885 14.5612 22.1365 14.6921 21.9276C14.8248 21.7158 14.8969 21.517 14.918 21.33L14.918 21.3295L14.9181 21.3289C14.9397 21.1461 14.9069 20.9749 14.8177 20.8095C14.7304 20.6478 14.5751 20.4881 14.3329 20.3363L10.7292 18.078ZM14.3696 22.5761C14.1775 22.6975 13.9655 22.7531 13.7334 22.743C13.5012 22.7328 13.2533 22.6451 12.9896 22.4798L9.5711 20.3376L9.1557 21.0005L12.5742 23.1427C12.9536 23.3805 13.3194 23.4986 13.6717 23.497C14.0254 23.4931 14.3521 23.3933 14.6519 23.1977C14.9508 22.9984 15.2076 22.7275 15.4222 22.3851C15.6266 22.0589 15.7533 21.7178 15.8024 21.3618C15.8506 21.0021 15.8015 20.6588 15.6552 20.3319C15.5088 20.0049 15.2459 19.7226 14.8665 19.4848L11.448 17.3425L11.0304 18.0089L14.4489 20.1511C14.7127 20.3164 14.8997 20.5013 15.01 20.7058C15.1203 20.9102 15.162 21.1265 15.1351 21.3545C15.1097 21.5802 15.0237 21.8099 14.8773 22.0436C14.7323 22.275 14.5631 22.4525 14.3696 22.5761Z" fill="black"/>
<path d="M13.4973 14.8035L14.0728 14.2982L18.7486 16.6621L17.0057 11.7227L17.5843 11.2146L19.6972 17.2954L19.2478 17.6899L13.4973 14.8035ZM13.3096 14.9684L13.8174 14.5225L16.3003 17.1823L17.8353 18.9304L17.2444 19.4493L13.3096 14.9684ZM17.2611 11.4984L17.7689 11.0525L21.7037 15.5334L21.1128 16.0522L19.5778 14.3042L17.2611 11.4984Z" fill="black"/>
<path fill-rule="evenodd" clip-rule="evenodd" d="M13.001 14.9484L17.2242 19.7576L18.1434 18.9504L16.4621 17.0357L15.5849 16.096L19.2812 17.9513L19.9516 17.3625L18.5944 13.4567L19.4112 14.4459L21.0926 16.3606L22.0119 15.5534L17.7887 10.7441L16.7502 11.656L18.3612 16.2215L14.0394 14.0365L13.001 14.9484ZM13.3094 14.9684L17.2442 19.4492L17.8351 18.9304L16.3001 17.1823L14.593 15.3536L19.2476 17.6899L19.697 17.2954L17.9891 12.3803L19.5776 14.3042L21.1126 16.0522L21.7035 15.5334L17.7687 11.0525L17.0055 11.7227L18.7484 16.6621L14.0726 14.2982L13.3094 14.9684Z" fill="black"/>
<path d="M24.7198 7.5355L27.1426 12.9845L26.4166 13.3073L21.8047 10.3242L23.6734 14.527L22.9511 14.8481L20.5283 9.39917L21.2506 9.07802L25.8787 12.0673L24.005 7.85332L24.7198 7.5355Z" fill="black"/>
<path fill-rule="evenodd" clip-rule="evenodd" d="M24.8301 7.24697L27.4304 13.0953L26.3966 13.5549L22.3022 10.9066L23.9612 14.6378L22.8396 15.1365L20.2393 9.28821L21.2693 8.83024L25.3803 11.4856L23.716 7.74236L24.8301 7.24697ZM25.8781 12.0672L21.25 9.07795L20.5277 9.3991L22.9505 14.8481L23.6728 14.5269L21.8041 10.3242L26.416 13.3072L27.142 12.9844L24.7192 7.53543L24.0044 7.85325L25.8781 12.0672Z" fill="black"/>
<path d="M28.118 6.66978L29.4535 12.4816L28.6831 12.6586L27.3477 6.8468L28.118 6.66978Z" fill="black"/>
<path fill-rule="evenodd" clip-rule="evenodd" d="M28.2823 6.40784L29.7156 12.6456L28.5193 12.9205L27.0859 6.68274L28.2823 6.40784ZM28.1182 6.66975L27.3478 6.84678L28.6833 12.6586L29.4537 12.4816L28.1182 6.66975Z" fill="black"/>
<path d="M35.7671 6.62833L33.4808 11.9395L32.6753 11.8927L35.2907 6.0714L35.81 6.10159L35.7671 6.62833ZM37.1035 12.1502L35.4441 6.60955L35.4625 6.08138L35.9818 6.11157L37.9131 12.1972L37.1035 12.1502ZM37.1294 9.94038L37.0918 10.5864L33.7472 10.3919L33.7848 9.74591L37.1294 9.94038Z" fill="black"/>
<path fill-rule="evenodd" clip-rule="evenodd" d="M35.982 6.11157L37.9133 12.1972L37.1037 12.1502L36.6273 10.5594L34.1375 10.4146L33.4811 11.9395L32.6756 11.8927L35.291 6.07139L35.982 6.11157ZM34.4097 9.78222L36.4297 9.89967L35.5802 7.06312L34.4097 9.78222ZM34.7337 9.58217L36.1308 9.6634L35.5432 7.70155L34.7337 9.58217ZM35.1534 5.84449L32.3463 12.0924L33.6212 12.1666L34.2776 10.6416L36.4618 10.7686L36.9383 12.3594L38.2176 12.4338L36.1448 5.90214L35.1534 5.84449Z" fill="black"/>
<path d="M42.2118 11.9325C42.2525 11.7993 42.2676 11.6754 42.2569 11.5608C42.2497 11.4444 42.208 11.3288 42.1317 11.2141C42.058 11.1002 41.944 10.9783 41.7896 10.8482C41.6378 10.719 41.4395 10.5741 41.1945 10.4135C40.9381 10.2437 40.7118 10.0731 40.5158 9.90181C40.3206 9.72788 40.1624 9.54958 40.0413 9.3669C39.9201 9.18422 39.8428 8.99354 39.8094 8.79485C39.7759 8.59617 39.7931 8.38586 39.861 8.16392C39.9289 7.94198 40.0373 7.75099 40.1862 7.59095C40.3351 7.43091 40.5155 7.30766 40.7276 7.22119C40.9431 7.1329 41.1816 7.08593 41.4431 7.08028C41.7047 7.07463 41.9817 7.11653 42.2741 7.20598C42.7023 7.33696 43.0401 7.53023 43.2874 7.78577C43.5382 8.0395 43.7016 8.32218 43.7776 8.63382C43.8544 8.94284 43.8472 9.24618 43.7562 9.54384L43.0042 9.31382C43.0697 9.09972 43.0819 8.89644 43.0408 8.70399C43.0006 8.50893 42.9021 8.33605 42.7455 8.18535C42.5897 8.03203 42.3694 7.91185 42.0848 7.8248C41.8159 7.74253 41.5816 7.71512 41.3819 7.74255C41.1822 7.76998 41.0181 7.83971 40.8896 7.95174C40.7637 8.06456 40.6736 8.20975 40.6193 8.3873C40.5826 8.50741 40.5738 8.62466 40.5931 8.73905C40.6158 8.85164 40.6678 8.96608 40.7493 9.08237C40.8334 9.19947 40.9483 9.31883 41.0938 9.44044C41.242 9.56285 41.4236 9.69263 41.6386 9.82979C41.9344 10.0202 42.1826 10.2075 42.3833 10.3917C42.5839 10.5758 42.7384 10.7615 42.8467 10.9489C42.9584 11.1344 43.0237 11.3271 43.0425 11.527C43.0647 11.7251 43.0419 11.9351 42.974 12.157C42.9029 12.3894 42.7916 12.5852 42.6401 12.7445C42.4886 12.9037 42.305 13.0232 42.0894 13.1028C41.8737 13.1825 41.6319 13.2213 41.3641 13.2194C41.0998 13.2156 40.8174 13.1678 40.5172 13.0759C40.2534 12.9952 40.0048 12.8792 39.7713 12.7278C39.5404 12.5773 39.3429 12.3969 39.1787 12.1868C39.0172 11.9775 38.9065 11.7466 38.8466 11.4942C38.7902 11.2399 38.8055 10.9705 38.8926 10.6859L39.6446 10.9159C39.5847 11.1117 39.571 11.2917 39.6036 11.4559C39.637 11.6174 39.705 11.7639 39.8076 11.8952C39.9128 12.0273 40.0422 12.1411 40.1957 12.2366C40.3526 12.3303 40.5225 12.4051 40.7052 12.461C40.969 12.5417 41.2034 12.5734 41.4085 12.5562C41.6137 12.539 41.784 12.4769 41.9195 12.3699C42.0577 12.2637 42.1551 12.1179 42.2118 11.9325Z" fill="black"/>
<path fill-rule="evenodd" clip-rule="evenodd" d="M42.0396 11.5777L42.0393 11.5744C42.0349 11.5028 42.0091 11.4237 41.9502 11.3352L41.9495 11.334L41.9487 11.3329C41.891 11.2437 41.7944 11.1376 41.6494 11.0154L41.6489 11.0151L41.6485 11.0147C41.506 10.8934 41.3157 10.754 41.0752 10.5963L41.0748 10.596L41.0744 10.5957C40.8112 10.4215 40.577 10.2451 40.3725 10.0664L40.3718 10.0657L40.371 10.065C40.1643 9.88093 39.993 9.68872 39.8597 9.48773C39.7231 9.28181 39.6334 9.06264 39.5944 8.83119C39.5545 8.59431 39.5763 8.3495 39.6526 8.10006C39.7295 7.84847 39.8539 7.62793 40.0267 7.44217C40.1982 7.25781 40.4055 7.11684 40.6454 7.01897C40.8885 6.91938 41.1539 6.86803 41.4389 6.86187C41.7273 6.85564 42.0276 6.90194 42.3386 6.99707C42.7927 7.13598 43.1654 7.34531 43.4442 7.63302C43.719 7.91136 43.9039 8.22785 43.9903 8.58163C44.0763 8.92801 44.0685 9.27153 43.9657 9.60781L43.9018 9.81678L42.7318 9.45892L42.7958 9.24996C42.8519 9.06641 42.86 8.90103 42.8276 8.74966L42.8275 8.74894L42.8273 8.74823C42.7968 8.60033 42.7224 8.46592 42.5945 8.34288L42.5936 8.34203L42.5928 8.34118C42.4694 8.2198 42.284 8.11413 42.0214 8.03382C41.7716 7.9574 41.5706 7.93733 41.4121 7.9591C41.2475 7.98171 41.1256 8.03679 41.0348 8.11553C40.942 8.19909 40.8725 8.30851 40.8288 8.45128C40.8015 8.54036 40.7961 8.62217 40.8085 8.69938C40.8244 8.77516 40.8614 8.86056 40.9281 8.95598C40.9986 9.05393 41.0991 9.15966 41.234 9.27243C41.3734 9.38754 41.5471 9.51197 41.7566 9.64561L41.757 9.64586L41.7574 9.6461C42.0608 9.84142 42.3195 10.0361 42.5316 10.2307C42.744 10.4257 42.9136 10.6277 43.0354 10.8378C43.1618 11.0481 43.2381 11.2709 43.2604 11.5046C43.2861 11.7363 43.2585 11.9759 43.1835 12.221C43.1035 12.4824 42.9762 12.7088 42.7989 12.8952C42.6234 13.0797 42.4111 13.2172 42.1656 13.3079C41.9214 13.398 41.653 13.4401 41.3631 13.4379L41.3623 13.4379L41.3615 13.4379C41.0731 13.4338 40.7702 13.3817 40.4538 13.2849C40.1704 13.1983 39.9034 13.0736 39.653 12.9113L39.6527 12.9111L39.6525 12.9109C39.4021 12.7477 39.1865 12.5511 39.007 12.3214L39.0066 12.3209L39.0062 12.3204C38.8261 12.087 38.7017 11.8279 38.6345 11.5446L38.6342 11.5431L38.6338 11.5416C38.5681 11.2455 38.5876 10.9375 38.6841 10.622L38.748 10.4131L39.918 10.7709L39.854 10.9799C39.8025 11.1485 39.7943 11.2911 39.8183 11.4126C39.8448 11.5402 39.8981 11.6553 39.9797 11.7599C40.0678 11.8704 40.1772 11.9673 40.3099 12.0501C40.4506 12.1339 40.6037 12.2013 40.7697 12.2521C41.0153 12.3272 41.221 12.3527 41.3908 12.3385C41.5615 12.3242 41.6888 12.2741 41.7846 12.1984L41.7857 12.1976L41.7868 12.1967C41.8849 12.1212 41.9583 12.0157 42.0033 11.8686C42.0374 11.7571 42.0474 11.6621 42.0399 11.581L42.0396 11.5777ZM40.1962 12.2367C40.0427 12.1412 39.9133 12.0274 39.8081 11.8952C39.7055 11.7639 39.6375 11.6175 39.6041 11.456C39.5715 11.2918 39.5852 11.1118 39.6451 10.916L38.8931 10.686C38.8711 10.7578 38.8537 10.8286 38.8409 10.8985C38.8029 11.1056 38.805 11.3041 38.8472 11.4942C38.907 11.7467 39.0177 11.9776 39.1792 12.1869C39.3434 12.397 39.5409 12.5773 39.7718 12.7279C40.0053 12.8793 40.254 12.9953 40.5177 13.076C40.8179 13.1678 41.1003 13.2156 41.3647 13.2194C41.6325 13.2214 41.8742 13.1825 42.0899 13.1029C42.3055 13.0232 42.4891 12.9038 42.6406 12.7445C42.7921 12.5853 42.9034 12.3895 42.9745 12.1571C43.0424 11.9352 43.0652 11.7251 43.043 11.527C43.0242 11.3271 42.959 11.1344 42.8472 10.9489C42.7389 10.7616 42.5844 10.5759 42.3838 10.3917C42.1831 10.2076 41.9349 10.0203 41.6391 9.82985C41.4241 9.69269 41.2425 9.56291 41.0943 9.4405C40.9488 9.31888 40.834 9.19953 40.7499 9.08243C40.6684 8.96613 40.6163 8.85169 40.5936 8.73911C40.5744 8.62472 40.5831 8.50747 40.6198 8.38736C40.6741 8.20981 40.7642 8.06462 40.8901 7.95179C41.0186 7.83977 41.1827 7.77004 41.3824 7.74261C41.5821 7.71517 41.8164 7.74259 42.0854 7.82485C42.37 7.91191 42.5902 8.03209 42.746 8.18541C42.9026 8.33611 43.0011 8.50899 43.0414 8.70405C43.0824 8.8965 43.0702 9.09977 43.0047 9.31388L43.7567 9.54389C43.7783 9.47321 43.7952 9.4022 43.8074 9.33087C43.8464 9.10185 43.8366 8.86951 43.7781 8.63387C43.7021 8.32224 43.5387 8.03956 43.288 7.78583C43.0406 7.53028 42.7028 7.33702 42.2746 7.20604C41.9822 7.11659 41.7052 7.07469 41.4436 7.08034C41.1821 7.08599 40.9436 7.13296 40.7281 7.22124C40.5161 7.30772 40.3356 7.43097 40.1867 7.59101C40.0378 7.75105 39.9294 7.94204 39.8615 8.16398C39.7937 8.38592 39.7764 8.59623 39.8099 8.79491C39.8433 8.9936 39.9206 9.18428 40.0418 9.36696C40.1629 9.54964 40.3211 9.72794 40.5163 9.90187C40.7124 10.0732 40.9386 10.2437 41.195 10.4136C41.44 10.5741 41.6384 10.7191 41.7901 10.8483C41.9445 10.9783 42.0586 11.1003 42.1322 11.2142C42.2085 11.3289 42.2502 11.4444 42.2575 11.5609C42.2681 11.6755 42.253 11.7994 42.2123 11.9325C42.1556 12.1179 42.0582 12.2637 41.92 12.3699C41.7845 12.477 41.6142 12.5391 41.409 12.5563C41.2039 12.5735 40.9695 12.5417 40.7058 12.4611C40.523 12.4052 40.3531 12.3304 40.1962 12.2367Z" fill="black"/>
<path d="M46.9925 14.3575C47.0623 14.2369 47.1049 14.1197 47.1205 14.0056C47.1398 13.8906 47.1252 13.7686 47.0769 13.6396C47.0309 13.512 46.9474 13.3674 46.8264 13.2059C46.7077 13.0457 46.5472 12.8597 46.3449 12.6478C46.1335 12.4245 45.9517 12.2072 45.7995 11.996C45.6486 11.7825 45.5348 11.573 45.4581 11.3677C45.3814 11.1623 45.3492 10.9591 45.3615 10.758C45.3738 10.5569 45.4381 10.3559 45.5544 10.1551C45.6707 9.95424 45.8195 9.79269 46.0007 9.67045C46.1819 9.5482 46.3856 9.46893 46.6117 9.43263C46.8415 9.39533 47.0845 9.40349 47.3405 9.45711C47.5966 9.51073 47.857 9.61416 48.1216 9.7674C48.5091 9.99178 48.7945 10.2564 48.9777 10.5612C49.1646 10.8651 49.2598 11.1774 49.2634 11.4981C49.2683 11.8165 49.1928 12.1104 49.0369 12.3798L48.3563 11.9857C48.4685 11.792 48.5264 11.5967 48.5299 11.3999C48.5347 11.2008 48.4779 11.0102 48.3594 10.828C48.2423 10.6434 48.0549 10.4765 47.7973 10.3274C47.554 10.1865 47.3319 10.1068 47.1312 10.0884C46.9305 10.07 46.7548 10.1008 46.6044 10.1809C46.4562 10.2623 46.3356 10.3834 46.2426 10.5441C46.1797 10.6528 46.1446 10.765 46.1376 10.8808C46.1342 10.9956 46.1591 11.1189 46.2122 11.2506C46.2676 11.3836 46.3525 11.5259 46.4668 11.6772C46.5834 11.83 46.731 11.9974 46.9094 12.1796C47.1545 12.432 47.354 12.6705 47.5078 12.8953C47.6617 13.12 47.7702 13.3359 47.8333 13.5428C47.9002 13.7488 47.9203 13.9513 47.8934 14.1503C47.8702 14.3482 47.8005 14.5477 47.6842 14.7485C47.5624 14.9588 47.4098 15.1244 47.2262 15.2453C47.0426 15.3662 46.8368 15.441 46.6087 15.4698C46.3806 15.4987 46.1363 15.4819 45.8759 15.4194C45.6192 15.356 45.355 15.2456 45.0833 15.0883C44.8446 14.9501 44.6287 14.7809 44.4354 14.5806C44.2445 14.3817 44.0929 14.1614 43.9804 13.9196C43.8704 13.6792 43.8148 13.4293 43.8135 13.1699C43.816 12.9094 43.8918 12.6504 44.041 12.3929L44.7215 12.7869C44.6189 12.9641 44.5649 13.1364 44.5595 13.3037C44.5556 13.4686 44.5887 13.6266 44.6589 13.7777C44.7316 13.9302 44.8319 14.0703 44.9598 14.198C45.0915 14.3248 45.2401 14.436 45.4055 14.5318C45.6441 14.67 45.8653 14.7539 46.069 14.7835C46.2728 14.8131 46.4527 14.7911 46.6089 14.7175C46.7675 14.6452 46.8954 14.5252 46.9925 14.3575Z" fill="black"/>
<path fill-rule="evenodd" clip-rule="evenodd" d="M46.904 13.9729L46.9045 13.9696C46.9164 13.8989 46.9091 13.816 46.8718 13.7165L46.8713 13.7152L46.8708 13.7139C46.8348 13.614 46.7647 13.4888 46.651 13.337L46.6506 13.3365L46.6503 13.3361C46.5389 13.1857 46.3851 13.0069 46.1864 12.7989L46.1861 12.7986L46.1857 12.7982C45.9688 12.569 45.7805 12.3443 45.6217 12.1239L45.6211 12.1231L45.6205 12.1222C45.4608 11.8962 45.3373 11.6702 45.2529 11.4443C45.1664 11.2128 45.1286 10.9791 45.1429 10.7448C45.1576 10.505 45.2341 10.2715 45.3649 10.0457C45.4967 9.81805 45.6677 9.63133 45.878 9.48944C46.0868 9.34862 46.3205 9.25815 46.5764 9.21704C46.8357 9.17499 47.1058 9.18495 47.3848 9.24337C47.6671 9.30248 47.9492 9.41547 48.2306 9.57843C48.6416 9.8164 48.9573 10.1046 49.1639 10.4478C49.3687 10.7811 49.4773 11.1312 49.4814 11.4953C49.4869 11.8522 49.4017 12.1851 49.2255 12.4894L49.116 12.6785L48.0573 12.0655L48.1668 11.8764C48.263 11.7102 48.3082 11.551 48.3109 11.3962L48.3109 11.3955L48.3109 11.3948C48.3146 11.2438 48.2725 11.096 48.1757 10.9473L48.1751 10.9462L48.1744 10.9452C48.0817 10.7991 47.925 10.6542 47.6874 10.5167C47.4613 10.3857 47.27 10.3208 47.1107 10.3061C46.9452 10.291 46.8141 10.3171 46.7078 10.3733C46.5986 10.4337 46.5061 10.5245 46.4312 10.6537C46.3846 10.7343 46.3608 10.8128 46.3554 10.8908C46.3537 10.9682 46.3705 11.0598 46.4139 11.1678C46.4604 11.2792 46.5344 11.4049 46.6403 11.5452C46.7501 11.6889 46.8912 11.8493 47.0651 12.0269L47.0654 12.0272L47.0657 12.0275C47.3171 12.2864 47.5252 12.5345 47.6877 12.772C47.8505 13.0099 47.9702 13.2451 48.0413 13.4773C48.1168 13.7107 48.1409 13.945 48.1097 14.1777C48.0824 14.4092 48.0013 14.6363 47.8729 14.8582C47.7359 15.0947 47.5607 15.2865 47.3459 15.4279C47.1331 15.568 46.8953 15.654 46.6356 15.6868C46.3774 15.7194 46.1064 15.6997 45.8245 15.6321L45.8238 15.6319L45.823 15.6317C45.543 15.5625 45.2596 15.4433 44.9733 15.2775C44.7169 15.1291 44.4849 14.9472 44.2777 14.7325L44.2775 14.7323L44.2773 14.7321C44.0703 14.5164 43.9047 14.2762 43.7818 14.0119L43.7816 14.0113L43.7813 14.0107C43.6586 13.7426 43.5959 13.4621 43.5945 13.171L43.5945 13.1695L43.5945 13.1679C43.5975 12.8646 43.6861 12.569 43.8514 12.2835L43.9609 12.0944L45.0196 12.7075L44.9101 12.8966C44.8218 13.0491 44.7816 13.1862 44.7775 13.31C44.7745 13.4403 44.8004 13.5644 44.8562 13.6848C44.9171 13.8123 45.0017 13.9314 45.1123 14.0421C45.2304 14.1555 45.3643 14.2558 45.5145 14.3428C45.7368 14.4715 45.9314 14.5429 46.1 14.5674C46.2695 14.592 46.4048 14.572 46.5153 14.52L46.5166 14.5194L46.5179 14.5188C46.6305 14.4675 46.7259 14.3812 46.8029 14.2481C46.8614 14.1472 46.8925 14.0569 46.9035 13.9762L46.904 13.9729ZM44.9594 14.1982C44.8314 14.0704 44.7311 13.9303 44.6585 13.7778C44.5882 13.6267 44.5551 13.4687 44.5591 13.3038C44.5644 13.1365 44.6184 12.9643 44.721 12.7871L44.0405 12.393C44.0029 12.458 43.9699 12.5231 43.9416 12.5883C43.8578 12.7814 43.8149 12.9753 43.8131 13.17C43.8143 13.4294 43.8699 13.6794 43.98 13.9198C44.0924 14.1615 44.244 14.3819 44.4349 14.5808C44.6282 14.781 44.8442 14.9502 45.0828 15.0884C45.3545 15.2457 45.6188 15.3561 45.8754 15.4196C46.1359 15.482 46.3801 15.4988 46.6082 15.47C46.8363 15.4412 47.0422 15.3663 47.2257 15.2454C47.4093 15.1245 47.562 14.959 47.6837 14.7487C47.8 14.5478 47.8698 14.3484 47.8929 14.1504C47.9198 13.9514 47.8998 13.7489 47.8329 13.543C47.7697 13.336 47.6612 13.1202 47.5074 12.8954C47.3535 12.6707 47.1541 12.4321 46.909 12.1798C46.7305 11.9976 46.583 11.8301 46.4663 11.6774C46.352 11.526 46.2671 11.3838 46.2117 11.2507C46.1586 11.119 46.1337 10.9957 46.1371 10.881C46.1442 10.7652 46.1792 10.6529 46.2421 10.5442C46.3352 10.3836 46.4558 10.2625 46.6039 10.181C46.7544 10.101 46.93 10.0701 47.1307 10.0885C47.3314 10.107 47.5535 10.1866 47.7969 10.3276C48.0544 10.4767 48.2418 10.6435 48.3589 10.8281C48.4774 11.0103 48.5343 11.201 48.5294 11.4001C48.5259 11.5968 48.4681 11.7921 48.3559 11.9859L49.0364 12.3799C49.0734 12.3159 49.1059 12.2506 49.1339 12.1838C49.2237 11.9696 49.2667 11.741 49.2629 11.4983C49.2593 11.1775 49.1641 10.8652 48.9772 10.5614C48.794 10.2565 48.5087 9.99193 48.1211 9.76754C47.8565 9.61431 47.5961 9.51088 47.3401 9.45726C47.084 9.40364 46.841 9.39548 46.6112 9.43278C46.3851 9.46908 46.1814 9.54835 46.0002 9.67059C45.819 9.79284 45.6703 9.95438 45.554 10.1552C45.4377 10.3561 45.3734 10.5571 45.361 10.7582C45.3487 10.9593 45.3809 11.1625 45.4576 11.3678C45.5344 11.5732 45.6481 11.7826 45.799 11.9961C45.9512 12.2073 46.133 12.4246 46.3444 12.648C46.5468 12.8598 46.7072 13.0458 46.8259 13.206C46.9469 13.3676 47.0304 13.5122 47.0764 13.6398C47.1248 13.7687 47.1393 13.8907 47.12 14.0058C47.1045 14.1198 47.0618 14.2371 46.992 14.3576C46.8949 14.5254 46.767 14.6454 46.6085 14.7176C46.4522 14.7912 46.2723 14.8132 46.0686 14.7836C45.8649 14.754 45.6437 14.6701 45.405 14.5319C45.2396 14.4362 45.0911 14.3249 44.9594 14.1982Z" fill="black"/>
<path d="M53.2674 17.6158L53.0048 17.886C52.6927 18.2071 52.3728 18.4559 52.0452 18.6324C51.7175 18.8089 51.3917 18.913 51.0677 18.9447C50.7438 18.9763 50.4304 18.9364 50.1276 18.8248C49.8268 18.7152 49.5461 18.5338 49.2857 18.2807C49.0331 18.0352 48.8468 17.7627 48.7266 17.4632C48.6085 17.1656 48.5586 16.8526 48.5771 16.524C48.5976 16.1974 48.6894 15.8659 48.8526 15.5295C49.0158 15.1932 49.2534 14.8644 49.5655 14.5433L49.8282 14.2731C50.1402 13.952 50.4602 13.7051 50.7879 13.5324C51.1195 13.3597 51.4482 13.2585 51.7741 13.2288C52.1019 13.1971 52.4163 13.236 52.7171 13.3457C53.0199 13.4572 53.2976 13.6357 53.5502 13.8812C53.8106 14.1343 53.9999 14.4097 54.1181 14.7073C54.2382 15.0068 54.2861 15.3199 54.2618 15.6465C54.2413 15.9732 54.1476 16.3027 53.9804 16.6353C53.8172 16.9678 53.5795 17.2946 53.2674 17.6158ZM52.4438 17.3408L52.7122 17.0647C52.9596 16.8101 53.152 16.5593 53.2894 16.3121C53.4288 16.0668 53.5133 15.8291 53.5428 15.5989C53.5724 15.3687 53.548 15.1489 53.4697 14.9395C53.3934 14.7321 53.2642 14.5399 53.0821 14.3629C52.9058 14.1916 52.713 14.0708 52.5034 14.0004C52.2958 13.9319 52.0764 13.9148 51.8452 13.9489C51.6159 13.985 51.3787 14.0743 51.1336 14.2169C50.8885 14.3594 50.6422 14.5579 50.3948 14.8124L50.1265 15.0885C49.8772 15.345 49.6839 15.5988 49.5465 15.8498C49.411 16.0989 49.3285 16.3405 49.299 16.5746C49.2734 16.8086 49.2978 17.0284 49.3722 17.2339C49.4485 17.4414 49.5748 17.6307 49.751 17.802C49.935 17.9809 50.1318 18.1055 50.3414 18.1759C50.5509 18.2463 50.7693 18.2625 50.9967 18.2245C51.2278 18.1864 51.464 18.0943 51.7052 17.9479C51.9483 17.7996 52.1945 17.5973 52.4438 17.3408Z" fill="black"/>
<path fill-rule="evenodd" clip-rule="evenodd" d="M52.7166 13.3458C53.0194 13.4574 53.2971 13.6359 53.5497 13.8814C53.8101 14.1345 53.9994 14.4098 54.1176 14.7074C54.2377 15.0069 54.2856 15.32 54.2613 15.6467C54.2409 15.9733 54.1471 16.3029 53.98 16.6355C53.8167 16.968 53.579 17.2948 53.2669 17.6159L53.0043 17.8861C52.6922 18.2073 52.3724 18.4561 52.0447 18.6326C51.717 18.8091 51.3912 18.9132 51.0673 18.9448C50.7433 18.9765 50.4299 18.9365 50.1271 18.825C49.8263 18.7154 49.5456 18.534 49.2852 18.2809C49.0326 18.0354 48.8463 17.7629 48.7262 17.4634C48.608 17.1658 48.5582 16.8527 48.5766 16.5242C48.5971 16.1976 48.6889 15.8661 48.8521 15.5297C49.0153 15.1933 49.253 14.8646 49.5651 14.5435L49.8277 14.2733C50.1398 13.9522 50.4597 13.7053 50.7874 13.5326C51.119 13.3599 51.4477 13.2587 51.7736 13.2289C52.1014 13.1972 52.4158 13.2362 52.7166 13.3458ZM51.7532 13.0114C52.1123 12.9767 52.4592 13.0195 52.7914 13.1405L52.7918 13.1406L52.7922 13.1408C53.1262 13.2638 53.4295 13.4598 53.702 13.7247C53.9815 13.9963 54.1896 14.2967 54.3206 14.6264C54.453 14.9569 54.5058 15.3028 54.4793 15.6617C54.4567 16.0207 54.3537 16.3781 54.1757 16.7327C54.0005 17.0893 53.7482 17.4343 53.4237 17.7682L53.161 18.0384C52.8365 18.3724 52.4991 18.636 52.1483 18.825C51.7988 19.0133 51.4452 19.1275 51.0885 19.1623C50.7322 19.1971 50.3859 19.1531 50.052 19.0302C49.7186 18.9087 49.4124 18.7092 49.1329 18.4376C48.8604 18.1728 48.6559 17.8751 48.5233 17.5447L48.5232 17.5444L48.5231 17.544C48.3929 17.2161 48.3382 16.8712 48.3585 16.5119L48.3585 16.5112L48.3586 16.5105C48.381 16.1518 48.4817 15.7927 48.6555 15.4343C48.8307 15.0733 49.0831 14.7258 49.4084 14.3912L49.671 14.121C49.9958 13.7867 50.3338 13.5246 50.6855 13.3393L50.686 13.339L50.6865 13.3388C51.0395 13.1549 51.3954 13.0441 51.7532 13.0114ZM53.0984 16.2052L53.0989 16.2043C53.2272 15.9785 53.3003 15.7678 53.3256 15.5712C53.3508 15.3749 53.3299 15.191 53.2645 15.0162L53.2643 15.0157L53.2641 15.0152C53.2007 14.8427 53.0914 14.6773 52.9293 14.5198C52.774 14.3689 52.6089 14.2668 52.4339 14.2079C52.2613 14.1511 52.077 14.1358 51.8777 14.1651C51.6807 14.1963 51.4693 14.2743 51.243 14.4059C51.0187 14.5363 50.7879 14.7212 50.5511 14.9649L50.2827 15.241C50.044 15.4866 49.8637 15.7247 49.7378 15.9547C49.6133 16.1838 49.5413 16.3987 49.5156 16.6003C49.4937 16.8028 49.5151 16.988 49.577 17.1592C49.6408 17.3324 49.7476 17.4946 49.9028 17.6455C50.0672 17.8052 50.2366 17.9105 50.4105 17.9689C50.5846 18.0274 50.7666 18.0415 50.9601 18.0091L50.9604 18.0091L50.9607 18.009C51.1592 17.9764 51.3691 17.8961 51.5911 17.7614C51.8151 17.6248 52.0471 17.4351 52.2867 17.1886L52.555 16.9125C52.7922 16.6684 52.9719 16.4328 53.0979 16.2061L53.0984 16.2052ZM49.3717 17.2341C49.2973 17.0285 49.2729 16.8087 49.2986 16.5747C49.3281 16.3407 49.4105 16.0991 49.546 15.85C49.6834 15.599 49.8767 15.3452 50.126 15.0887L50.3944 14.8126C50.6417 14.5581 50.888 14.3595 51.1331 14.217C51.3783 14.0745 51.6155 13.9852 51.8447 13.9491C52.0759 13.9149 52.2953 13.9321 52.5029 14.0006C52.7125 14.0709 52.9054 14.1918 53.0816 14.363C53.2637 14.54 53.3929 14.7322 53.4692 14.9397C53.5475 15.149 53.5719 15.3688 53.5423 15.599C53.5128 15.8292 53.4283 16.067 53.2889 16.3122C53.1515 16.5594 52.9591 16.8103 52.7117 17.0648L52.4434 17.3409C52.1941 17.5974 51.9479 17.7998 51.7047 17.9481C51.4635 18.0944 51.2273 18.1866 50.9962 18.2247C50.7689 18.2627 50.5504 18.2465 50.3409 18.1761C50.1314 18.1057 49.9346 17.981 49.7505 17.8022C49.5743 17.6309 49.448 17.4415 49.3717 17.2341Z" fill="black"/>
<path d="M55.2924 23.0067L55.6984 23.6801C55.3546 23.8396 55.0101 23.9214 54.665 23.9254C54.3199 23.9294 53.99 23.8398 53.6754 23.6564C53.3632 23.4717 53.0837 23.1747 52.8369 22.7655C52.6565 22.4662 52.5483 22.16 52.5125 21.8468C52.4781 21.5359 52.511 21.2308 52.611 20.9313C52.7134 20.6305 52.8806 20.3447 53.1128 20.074C53.3486 19.8042 53.6455 19.5615 54.0032 19.3458L54.5118 19.0391C54.8696 18.8234 55.2216 18.6749 55.5679 18.5936C55.918 18.5132 56.2507 18.4992 56.566 18.5514C56.8826 18.606 57.1732 18.7257 57.4377 18.9105C57.7022 19.0954 57.9297 19.3457 58.12 19.6613C58.3526 20.0472 58.4768 20.4171 58.4926 20.771C58.5083 21.125 58.432 21.4532 58.2636 21.7556C58.099 22.0589 57.8589 22.3296 57.5433 22.5677L57.1373 21.8943C57.356 21.7178 57.524 21.5336 57.6411 21.3418C57.7606 21.1486 57.8177 20.942 57.8125 20.7219C57.8074 20.5019 57.7251 20.2597 57.5658 19.9955C57.4291 19.7687 57.2653 19.5948 57.0744 19.474C56.885 19.3554 56.6755 19.2856 56.446 19.2646C56.2179 19.2459 55.9752 19.2743 55.7178 19.3498C55.4604 19.4253 55.1961 19.5448 54.9249 19.7083L54.4093 20.0192C54.1591 20.1701 53.9396 20.3375 53.7508 20.5214C53.5634 20.7078 53.4192 20.9047 53.318 21.1124C53.2168 21.3201 53.1684 21.5358 53.1726 21.7596C53.1792 21.9821 53.2508 22.2067 53.3876 22.4335C53.561 22.7211 53.7448 22.9227 53.9389 23.0385C54.133 23.1542 54.3415 23.2038 54.5644 23.1874C54.7886 23.1733 55.0313 23.1131 55.2924 23.0067Z" fill="black"/>
<path fill-rule="evenodd" clip-rule="evenodd" d="M55.3829 22.7337L56.0112 23.7758L55.7903 23.8783C55.4212 24.0495 55.0464 24.1394 54.6675 24.1438C54.2806 24.1484 53.9121 24.0473 53.5653 23.8452L53.5647 23.8448L53.5641 23.8444C53.2124 23.6364 52.9094 23.309 52.6497 22.8783C52.4548 22.5551 52.3351 22.2191 52.2953 21.8715L52.2953 21.8711L52.2953 21.8707C52.2574 21.5281 52.2937 21.1912 52.4036 20.862L52.4038 20.8614L52.404 20.8609C52.5164 20.5306 52.6987 20.2209 52.9468 19.9317L52.9475 19.9309L52.9482 19.9301C53.2012 19.6407 53.5163 19.3841 53.8903 19.1586L54.3989 18.8519C54.7728 18.6264 55.1459 18.4681 55.5179 18.3808L55.5184 18.3807L55.519 18.3806C55.8934 18.2946 56.255 18.2783 56.6016 18.3357L56.6023 18.3359L56.603 18.336C56.9515 18.396 57.2721 18.5282 57.5628 18.7314C57.8557 18.9361 58.1032 19.2103 58.307 19.5484C58.5535 19.9572 58.693 20.3622 58.7108 20.7612C58.7283 21.1543 58.6432 21.5224 58.455 21.8608C58.2735 22.1949 58.0114 22.4882 57.6749 22.7421L57.4813 22.8881L56.8516 21.8439L57 21.7242C57.2039 21.5596 57.3533 21.3936 57.4545 21.2279L57.4548 21.2273L57.4552 21.2268C57.5531 21.0684 57.5981 20.9033 57.594 20.727C57.59 20.5572 57.5258 20.3523 57.3786 20.1082C57.2565 19.9057 57.1153 19.7586 56.9579 19.6588C56.7988 19.5594 56.6229 19.5004 56.427 19.4822C56.2301 19.4662 56.0148 19.4903 55.7792 19.5594C55.5427 19.6287 55.2956 19.7398 55.0376 19.8954L54.522 20.2063C54.285 20.3492 54.0794 20.5063 53.904 20.6771C53.7319 20.8484 53.6033 21.0255 53.5144 21.208C53.428 21.3853 53.3876 21.5665 53.391 21.7542C53.3965 21.9322 53.4539 22.1202 53.5747 22.3206C53.7379 22.5912 53.8988 22.7601 54.0507 22.8507C54.2068 22.9437 54.3707 22.9825 54.5482 22.9694L54.5494 22.9693L54.5506 22.9692C54.7461 22.957 54.9653 22.9039 55.2098 22.8043L55.3829 22.7337ZM53.1725 21.7596C53.1683 21.5357 53.2168 21.32 53.3179 21.1123C53.4191 20.9047 53.5634 20.7077 53.7507 20.5214C53.9395 20.3374 54.159 20.17 54.4092 20.0191L54.9248 19.7082C55.196 19.5447 55.4603 19.4252 55.7177 19.3497C55.9751 19.2742 56.2178 19.2458 56.4459 19.2645C56.6754 19.2856 56.8849 19.3554 57.0743 19.4739C57.2652 19.5948 57.429 19.7686 57.5657 19.9954C57.7251 20.2596 57.8073 20.5018 57.8125 20.7219C57.8176 20.9419 57.7605 21.1486 57.641 21.3418C57.5239 21.5335 57.356 21.7177 57.1372 21.8942L57.5432 22.5677C57.6031 22.5225 57.6602 22.4762 57.7146 22.4287C57.9471 22.2257 58.1301 22.0013 58.2635 21.7555C58.4319 21.4531 58.5082 21.1249 58.4925 20.771C58.4767 20.417 58.3525 20.0471 58.1199 19.6613C57.9296 19.3456 57.7022 19.0953 57.4376 18.9105C57.1731 18.7256 56.8826 18.6059 56.5659 18.5513C56.2506 18.4991 55.918 18.5132 55.5679 18.5935C55.2215 18.6748 54.8695 18.8233 54.5117 19.0391L54.0031 19.3457C53.6454 19.5614 53.3486 19.8042 53.1127 20.0739C52.8805 20.3446 52.7133 20.6304 52.6109 20.9312C52.5109 21.2307 52.4781 21.5358 52.5125 21.8467C52.5483 22.1599 52.6564 22.4661 52.8369 22.7654C53.0836 23.1746 53.3631 23.4716 53.6754 23.6564C53.99 23.8397 54.3198 23.9294 54.6649 23.9253C54.9419 23.9221 55.2185 23.8688 55.4946 23.7654C55.5626 23.74 55.6305 23.7115 55.6983 23.6801L55.2923 23.0066C55.0312 23.113 54.7886 23.1733 54.5643 23.1873C54.3414 23.2037 54.1329 23.1541 53.9388 23.0384C53.7447 22.9227 53.5609 22.721 53.3875 22.4334C53.2508 22.2066 53.1791 21.982 53.1725 21.7596Z" fill="black"/>
<path d="M60.314 24.4728L54.737 26.5841L54.4572 25.8449L60.0342 23.7335L60.314 24.4728Z" fill="black"/>
<path fill-rule="evenodd" clip-rule="evenodd" d="M60.5948 24.5998L54.609 26.8659L54.1744 25.7179L60.1602 23.4518L60.5948 24.5998ZM60.313 24.4728L60.0332 23.7335L54.4561 25.8449L54.736 26.5841L60.313 24.4728Z" fill="black"/>
<path d="M61.0421 29.2345L55.3403 28.2722L55.1949 27.4786L61.4702 28.6397L61.564 29.1513L61.0421 29.2345ZM55.9943 31.8415L60.9837 28.9162L61.5012 28.8089L61.595 29.3205L56.1405 32.6392L55.9943 31.8415ZM58.1473 31.343L57.5108 31.4596L56.907 28.1642L57.5435 28.0476L58.1473 31.343Z" fill="black"/>
<path fill-rule="evenodd" clip-rule="evenodd" d="M61.5964 29.3204L56.1419 32.6391L55.9957 31.8414L57.4282 31.0015L56.9788 28.5484L55.3417 28.2721L55.1963 27.4785L61.4716 28.6396L61.5964 29.3204ZM57.6576 28.6629L58.0223 30.6532L60.5767 29.1556L57.6576 28.6629ZM57.9288 28.9303L58.181 30.3069L59.9477 29.271L57.9288 28.9303ZM61.6594 28.4521L54.9242 27.2059L55.1544 28.4621L56.7914 28.7384L57.1857 30.8904L55.7532 31.7303L55.9841 32.9909L61.8384 29.429L61.6594 28.4521Z" fill="black"/>
<path d="M61.9214 36.0408L55.9684 35.6914L56.014 34.9146L61.967 35.264L61.9214 36.0408ZM61.8091 37.9543L61.1631 37.9164L61.4331 33.3167L62.0791 33.3546L61.8091 37.9543Z" fill="black"/>
<path fill-rule="evenodd" clip-rule="evenodd" d="M62.0796 33.3546L61.4336 33.3167L61.3215 35.2261L56.0145 34.9146L55.9689 35.6915L61.2759 36.003L61.1636 37.9164L61.8096 37.9544L62.0796 33.3546ZM61.045 36.2083L55.7379 35.8968L55.8091 34.6837L61.1162 34.9952L61.2282 33.0858L62.3105 33.1493L62.015 38.1853L60.9327 38.1218L61.045 36.2083Z" fill="black"/>
<path d="M61.1707 40.762L55.3639 39.4047L55.5438 38.6349L61.3506 39.9923L61.1707 40.762Z" fill="black"/>
<path fill-rule="evenodd" clip-rule="evenodd" d="M61.3339 41.0246L55.1015 39.5678L55.3809 38.3725L61.6133 39.8293L61.3339 41.0246ZM61.1708 40.7621L61.3508 39.9924L55.544 38.635L55.3641 39.4047L61.1708 40.7621Z" fill="black"/>
<path d="M56.0695 46.4114L55.7252 46.2585C55.3159 46.0767 54.9718 45.8627 54.6928 45.6164C54.4138 45.37 54.2034 45.1003 54.0616 44.8073C53.9199 44.5144 53.8489 44.2065 53.8488 43.8838C53.8476 43.5636 53.9206 43.2376 54.068 42.9056C54.2109 42.5837 54.4021 42.3146 54.6416 42.0983C54.8799 41.8844 55.1564 41.7293 55.471 41.633C55.7845 41.5392 56.1273 41.5107 56.4994 41.5474C56.8714 41.5841 57.2621 41.6934 57.6714 41.8751L58.0158 42.028C58.425 42.2097 58.7674 42.4244 59.0427 42.6722C59.3195 42.9235 59.5282 43.1969 59.6689 43.4924C59.8121 43.789 59.8843 44.0974 59.8855 44.4176C59.8856 44.7403 59.8142 45.0626 59.6713 45.3845C59.5239 45.7164 59.3311 45.9893 59.0927 46.2031C58.8533 46.4195 58.5761 46.5728 58.2612 46.663C57.9477 46.7568 57.606 46.7828 57.2361 46.7411C56.8677 46.703 56.4788 46.5931 56.0695 46.4114ZM56.0426 45.5435L56.3945 45.6997C56.7189 45.8438 57.0208 45.9375 57.3003 45.9809C57.5787 46.0268 57.831 46.0238 58.0572 45.9719C58.2834 45.92 58.4811 45.8211 58.6505 45.6752C58.8187 45.5318 58.9543 45.344 59.0574 45.112C59.1571 44.8874 59.2037 44.6646 59.1973 44.4436C59.1897 44.2252 59.1299 44.0134 59.0178 43.8083C58.9046 43.6057 58.7388 43.414 58.5202 43.2333C58.3017 43.0527 58.0302 42.8903 57.7058 42.7463L57.3539 42.59C57.027 42.4449 56.722 42.3513 56.439 42.3093C56.1584 42.2683 55.9032 42.2745 55.6734 42.3278C55.445 42.3848 55.2472 42.4837 55.0801 42.6246C54.9118 42.768 54.7779 42.952 54.6781 43.1766C54.574 43.4111 54.5251 43.6389 54.5316 43.8599C54.5381 44.0808 54.5984 44.2913 54.7127 44.4915C54.8284 44.6952 54.9966 44.8849 55.2174 45.0606C55.4406 45.2374 55.7157 45.3983 56.0426 45.5435Z" fill="black"/>
<path fill-rule="evenodd" clip-rule="evenodd" d="M59.8852 44.4176C59.8853 44.7403 59.8139 45.0626 59.671 45.3845C59.5236 45.7164 59.3307 45.9893 59.0924 46.2031C58.853 46.4194 58.5758 46.5727 58.2609 46.6629C57.9474 46.7568 57.6057 46.7828 57.2358 46.7411C56.8674 46.703 56.4785 46.593 56.0692 46.4113L55.7249 46.2584C55.3156 46.0767 54.9715 45.8627 54.6925 45.6163C54.4135 45.37 54.2031 45.1003 54.0613 44.8073C53.9195 44.5143 53.8486 44.2065 53.8485 43.8838C53.8472 43.5636 53.9203 43.2375 54.0677 42.9056C54.2106 42.5837 54.4018 42.3146 54.6412 42.0982C54.8796 41.8844 55.1561 41.7293 55.4707 41.633C55.7842 41.5392 56.127 41.5106 56.4991 41.5474C56.8711 41.5841 57.2618 41.6933 57.6711 41.875L58.0155 42.0279C58.4247 42.2096 58.767 42.4244 59.0424 42.6721C59.3192 42.9235 59.5279 43.1969 59.6686 43.4924C59.8118 43.789 59.884 44.0973 59.8852 44.4176ZM59.8657 43.3979C60.0224 43.7228 60.1023 44.0631 60.1037 44.4167L60.1037 44.4171L60.1037 44.4175C60.1038 44.7735 60.0249 45.1259 59.8707 45.4732C59.7125 45.8293 59.5027 46.1285 59.2386 46.3655C58.9744 46.6041 58.6681 46.7734 58.3223 46.8727C57.9776 46.9756 57.6066 47.0027 57.2123 46.9583C56.8171 46.9173 56.4062 46.8 55.9806 46.6111L55.6362 46.4581C55.2105 46.2692 54.8465 46.0439 54.5478 45.7801C54.2502 45.5173 54.0207 45.2251 53.8646 44.9025C53.7087 44.5802 53.6301 44.2401 53.6299 43.8843C53.6286 43.5295 53.7098 43.1731 53.868 42.8169C54.0221 42.4696 54.2306 42.1747 54.4948 41.9361L54.495 41.9358L54.4953 41.9356C54.758 41.6999 55.0626 41.5294 55.4067 41.424L55.4074 41.4238L55.4081 41.4236C55.7524 41.3206 56.1242 41.2908 56.5205 41.3299C56.9199 41.3693 57.3332 41.4859 57.7597 41.6753L58.1041 41.8282C58.5302 42.0174 58.893 42.2437 59.1886 42.5097L59.189 42.51L59.1893 42.5103C59.484 42.778 59.7111 43.0736 59.8657 43.3979ZM57.3346 45.7651L57.3356 45.7653C57.5918 45.8075 57.8147 45.8032 58.008 45.7589C58.2009 45.7146 58.3662 45.6314 58.5075 45.5096L58.508 45.5092L58.5084 45.5088C58.6483 45.3896 58.7656 45.2299 58.8573 45.0232C58.9452 44.8254 58.9838 44.6352 58.9785 44.4506C58.9722 44.269 58.9227 44.0908 58.8262 43.9139C58.7288 43.7398 58.5825 43.5686 58.3807 43.4017C58.1808 43.2364 57.9274 43.0838 57.6168 42.9459L57.2649 42.7897C56.9519 42.6507 56.6661 42.564 56.4068 42.5254C56.1487 42.4878 55.9222 42.4946 55.7242 42.5403C55.5266 42.5898 55.3602 42.674 55.2211 42.7912C55.0806 42.9111 54.9654 43.0673 54.8776 43.2652C54.7845 43.4747 54.7444 43.67 54.7497 43.8534C54.7551 44.037 54.8049 44.2127 54.9022 44.3831L54.9023 44.3833L54.9024 44.3835C55.0018 44.5585 55.1498 44.7277 55.3529 44.8894C55.5586 45.0522 55.8169 45.2043 56.131 45.3437L56.4828 45.5C56.7939 45.6381 57.0772 45.7251 57.3335 45.7649L57.3346 45.7651ZM55.0798 42.6245C55.2469 42.4836 55.4446 42.3847 55.6731 42.3278C55.9029 42.2745 56.1581 42.2683 56.4386 42.3092C56.7217 42.3513 57.0267 42.4448 57.3536 42.59L57.7055 42.7462C58.0299 42.8903 58.3014 43.0526 58.5199 43.2333C58.7384 43.414 58.9043 43.6056 59.0175 43.8082C59.1296 44.0134 59.1894 44.2251 59.197 44.4436C59.2034 44.6645 59.1568 44.8873 59.0571 45.1119C58.954 45.344 58.8184 45.5317 58.6502 45.6751C58.4808 45.821 58.283 45.9199 58.0568 45.9719C57.8306 46.0238 57.5784 46.0268 57.3 45.9809C57.0205 45.9375 56.7186 45.8437 56.3942 45.6997L56.0423 45.5435C55.7154 45.3983 55.4403 45.2373 55.2171 45.0605C54.9963 44.8849 54.8281 44.6952 54.7124 44.4914C54.5981 44.2913 54.5377 44.0808 54.5313 43.8598C54.5248 43.6389 54.5737 43.4111 54.6778 43.1765C54.7776 42.9519 54.9115 42.7679 55.0798 42.6245Z" fill="black"/>
<path d="M54.2108 53.517L49.5993 49.7361L50.103 49.1217L55.5633 49.7162L52.0064 46.8001L52.5076 46.1888L57.1191 49.9696L56.618 50.5809L51.1404 49.9881L54.7068 52.912L54.2108 53.517Z" fill="black"/>
<path fill-rule="evenodd" clip-rule="evenodd" d="M54.2413 53.8244L49.2918 49.7665L50.0091 48.8916L54.8567 49.4194L51.699 46.8304L52.4772 45.8812L57.4268 49.9391L56.7121 50.8108L51.8465 50.2842L55.0144 52.8815L54.2413 53.8244ZM51.1405 49.988L56.6181 50.5808L57.1192 49.9695L52.5077 46.1887L52.0065 46.8L55.5634 49.7161L50.1031 49.1216L49.5994 49.7361L54.2109 53.5169L54.7069 52.9119L51.1405 49.988Z" fill="black"/>
<path d="M48.4443 27.2958V42.501H45.7445V30.7414L38.3536 33.3778V31.7191L37.2478 31.3735L48.4443 27.2958Z" fill="black"/>
<path d="M36.1424 33.5162L35.1748 34.3456V42.5011H36.1424V33.5162Z" fill="black"/>
<path d="M36.1422 33.2397L34.207 32.5486V33.6544L35.1746 34.0691L36.1422 33.2397Z" fill="black"/>
<path d="M31.9963 33.5162L32.9639 34.3456V42.5011H31.9963V33.5162Z" fill="black"/>
<path d="M31.9955 33.2396L33.9304 32.5487L33.9307 33.6543L32.9631 34.069L31.9955 33.2396Z" fill="black"/>
<path d="M41.9116 20.7792L34.113 18.0067L26.3281 20.7792L34.113 24.0434L41.9116 20.7792Z" fill="black"/>
<path d="M34.1138 24.2346L29.9346 22.4865V25.4365L34.1138 27.1028L38.2931 25.4365V22.4865L34.1138 24.2346Z" fill="black"/>
<path d="M27.9941 21.23H28.3219V23.5245H27.9941V21.23Z" fill="black"/>
<path d="M27.7754 23.7976C27.7754 23.5864 27.9466 23.4152 28.1578 23.4152V23.4152C28.369 23.4152 28.5402 23.5864 28.5402 23.7976V26.9935H27.7754V23.7976Z" fill="black"/>
<path d="M28.5129 22.705C28.5129 22.9011 28.354 23.0601 28.1578 23.0601C27.9617 23.0601 27.8027 22.9011 27.8027 22.705C27.8027 22.5088 27.9617 22.3499 28.1578 22.3499C28.354 22.3499 28.5129 22.5088 28.5129 22.705Z" fill="black"/>
<path d="M19.6934 27.2958V42.501H22.3932V30.7414L29.7841 33.3778V31.7191L30.8899 31.3735L19.6934 27.2958Z" fill="black"/>
<path fill-rule="evenodd" clip-rule="evenodd" d="M14.1313 34C14.1313 44.9732 23.0269 53.8688 34.0001 53.8688C44.9733 53.8688 53.8689 44.9732 53.8689 34C53.8689 23.0267 44.9733 14.1312 34.0001 14.1312C23.0269 14.1312 14.1313 23.0267 14.1313 34ZM34.0001 54.3887C22.7397 54.3887 13.6113 45.2604 13.6113 34C13.6113 22.7396 22.7397 13.6112 34.0001 13.6112C45.2605 13.6112 54.3889 22.7396 54.3889 34C54.3889 45.2604 45.2605 54.3887 34.0001 54.3887Z" fill="#1E3A8A"/>
<path fill-rule="evenodd" clip-rule="evenodd" d="M34.001 4.03885C17.4538 4.03885 4.0397 17.453 4.0397 34.0001C4.0397 50.5473 17.4538 63.9614 34.001 63.9614C50.5481 63.9614 63.9622 50.5473 63.9622 34.0001C63.9622 17.453 50.5481 4.03885 34.001 4.03885ZM3.52148 34.0001C3.52148 17.1668 17.1676 3.52063 34.001 3.52063C50.8343 3.52063 64.4805 17.1668 64.4805 34.0001C64.4805 50.8335 50.8343 64.4796 34.001 64.4796C17.1676 64.4796 3.52148 50.8335 3.52148 34.0001Z" fill="#1E3A8A"/>
<path fill-rule="evenodd" clip-rule="evenodd" d="M34 2.81946C16.7795 2.81946 2.81946 16.7795 2.81946 34C2.81946 51.2205 16.7795 65.1805 34 65.1805C51.2205 65.1805 65.1805 51.2205 65.1805 34C65.1805 16.7795 51.2205 2.81946 34 2.81946ZM2 34C2 16.3269 16.3269 2 34 2C51.6731 2 66 16.3269 66 34C66 51.6731 51.6731 66 34 66C16.3269 66 2 51.6731 2 34Z" fill="#1E3A8A"/>
<path d="M49.5509 46.6479L51.4861 43.6069C51.4861 43.6069 50.2421 43.3304 50.2421 42.3628H17.8965C17.8965 43.3304 16.376 43.6069 16.376 43.6069L18.3112 46.6479L22.514 50.5667L27.1166 52.9842L30.5993 53.8856L34.724 54.1997L40.6924 52.9842L45.1721 50.7853L49.5509 46.6479Z" fill="#1E3A8A"/>
<path fill-rule="evenodd" clip-rule="evenodd" d="M17.8965 24.7264L37.9397 31.9957V42.5011H36.4192V33.1015L19.4276 26.9101V42.4457H17.8965V24.7264Z" fill="#1E3A8A"/>
<path d="M36.7649 31.1663L48.7217 26.8812V42.5011H50.2422V24.6696L34.4841 30.3369L36.7649 31.1663Z" fill="#1E3A8A"/>
<path fill-rule="evenodd" clip-rule="evenodd" d="M31.7192 33.8144C31.7192 33.3878 31.9899 33.0081 32.3932 32.869L33.7236 32.4103L31.4429 31.5809V31.5809C30.6967 31.8121 30.1881 32.5022 30.1881 33.2833V42.4516H31.7192V33.8144Z" fill="#1E3A8A"/>
<path d="M45.188 47.4759V47.8206H42.8027V47.5734L44.2811 45.2856H44.6235L44.2561 45.9477L43.2789 47.4759H45.188ZM44.7278 45.2856V48.587H44.3083V45.2856H44.7278Z" fill="white"/>
<path d="M42.5085 48.2424V48.587H40.3477V48.2855L41.4292 47.0815C41.5622 46.9333 41.665 46.8079 41.7376 46.7051C41.8116 46.6008 41.863 46.5078 41.8918 46.4262C41.922 46.3431 41.9371 46.2584 41.9371 46.1723C41.9371 46.0634 41.9144 45.9652 41.8691 45.8775C41.8253 45.7883 41.7603 45.7173 41.6741 45.6644C41.5879 45.6115 41.4836 45.585 41.3612 45.585C41.2146 45.585 41.0921 45.6137 40.9939 45.6712C40.8971 45.7271 40.8246 45.8057 40.7762 45.907C40.7278 46.0082 40.7036 46.1246 40.7036 46.2561H40.2842C40.2842 46.0702 40.325 45.9002 40.4066 45.746C40.4882 45.5918 40.6092 45.4694 40.7694 45.3787C40.9296 45.2865 41.1269 45.2404 41.3612 45.2404C41.5698 45.2404 41.7482 45.2774 41.8963 45.3515C42.0444 45.424 42.1578 45.5268 42.2364 45.6598C42.3165 45.7913 42.3566 45.9455 42.3566 46.1224C42.3566 46.2191 42.3399 46.3174 42.3067 46.4171C42.275 46.5154 42.2304 46.6136 42.1729 46.7119C42.117 46.8101 42.0512 46.9069 41.9757 47.0021C41.9016 47.0974 41.8222 47.1911 41.7376 47.2833L40.8533 48.2424H42.5085Z" fill="white"/>
<path d="M39.8057 46.6733V47.1767C39.8057 47.4473 39.7815 47.6755 39.7332 47.8615C39.6848 48.0474 39.6153 48.197 39.5246 48.3104C39.4339 48.4238 39.3243 48.5062 39.1958 48.5576C39.0688 48.6074 38.9252 48.6324 38.765 48.6324C38.638 48.6324 38.5209 48.6165 38.4135 48.5848C38.3062 48.553 38.2095 48.5024 38.1233 48.4328C38.0387 48.3618 37.9661 48.2696 37.9057 48.1562C37.8452 48.0429 37.7991 47.9053 37.7673 47.7436C37.7356 47.5818 37.7197 47.3929 37.7197 47.1767V46.6733C37.7197 46.4028 37.7439 46.176 37.7923 45.9931C37.8422 45.8102 37.9125 45.6636 38.0032 45.5533C38.0938 45.4414 38.2027 45.3613 38.3297 45.3129C38.4581 45.2645 38.6017 45.2404 38.7605 45.2404C38.8889 45.2404 39.0068 45.2562 39.1142 45.288C39.223 45.3182 39.3197 45.3673 39.4044 45.4354C39.489 45.5019 39.5608 45.591 39.6198 45.7029C39.6803 45.8133 39.7264 45.9485 39.7581 46.1088C39.7899 46.269 39.8057 46.4572 39.8057 46.6733ZM39.384 47.2447V46.6031C39.384 46.4549 39.3749 46.3249 39.3568 46.2131C39.3402 46.0997 39.3152 46.003 39.282 45.9228C39.2487 45.8427 39.2064 45.7777 39.155 45.7278C39.1051 45.678 39.0469 45.6417 38.9804 45.619C38.9154 45.5948 38.8421 45.5827 38.7605 45.5827C38.6607 45.5827 38.5723 45.6016 38.4952 45.6394C38.4181 45.6757 38.3531 45.7339 38.3002 45.814C38.2488 45.8941 38.2095 45.9992 38.1823 46.1292C38.1551 46.2592 38.1415 46.4171 38.1415 46.6031V47.2447C38.1415 47.3929 38.1498 47.5236 38.1664 47.637C38.1845 47.7504 38.211 47.8486 38.2458 47.9318C38.2805 48.0134 38.3229 48.0806 38.3727 48.1335C38.4226 48.1865 38.4801 48.2258 38.5451 48.2515C38.6116 48.2756 38.6849 48.2877 38.765 48.2877C38.8678 48.2877 38.9577 48.2681 39.0348 48.2288C39.1119 48.1895 39.1761 48.1283 39.2275 48.0451C39.2804 47.9605 39.3197 47.8524 39.3454 47.7209C39.3711 47.5879 39.384 47.4291 39.384 47.2447Z" fill="white"/>
<path d="M37.2839 48.2424V48.587H35.1231V48.2855L36.2046 47.0815C36.3376 46.9333 36.4404 46.8079 36.513 46.7051C36.587 46.6008 36.6384 46.5078 36.6672 46.4262C36.6974 46.3431 36.7125 46.2584 36.7125 46.1723C36.7125 46.0634 36.6898 45.9652 36.6445 45.8775C36.6006 45.7883 36.5356 45.7173 36.4495 45.6644C36.3633 45.6115 36.259 45.585 36.1366 45.585C35.99 45.585 35.8675 45.6137 35.7693 45.6712C35.6725 45.7271 35.6 45.8057 35.5516 45.907C35.5032 46.0082 35.479 46.1246 35.479 46.2561H35.0596C35.0596 46.0702 35.1004 45.9002 35.182 45.746C35.2636 45.5918 35.3846 45.4694 35.5448 45.3787C35.705 45.2865 35.9023 45.2404 36.1366 45.2404C36.3452 45.2404 36.5235 45.2774 36.6717 45.3515C36.8198 45.424 36.9332 45.5268 37.0118 45.6598C37.0919 45.7913 37.132 45.9455 37.132 46.1224C37.132 46.2191 37.1153 46.3174 37.0821 46.4171C37.0503 46.5154 37.0057 46.6136 36.9483 46.7119C36.8924 46.8101 36.8266 46.9069 36.751 47.0021C36.677 47.0974 36.5976 47.1911 36.513 47.2833L35.6287 48.2424H37.2839Z" fill="white"/>
<path d="M33.6036 47.0111V47.3558H32.4971V47.0111H33.6036Z" fill="white"/>
<path d="M30.1821 45.2856V48.587H29.7513V45.2856H30.1821ZM31.2432 45.2856V45.6439H28.6924V45.2856H31.2432Z" fill="white"/>
<path d="M27.9649 47.7526C27.9649 47.6755 27.9528 47.6075 27.9286 47.5486C27.9059 47.4881 27.8651 47.4337 27.8062 47.3853C27.7487 47.3369 27.6686 47.2908 27.5658 47.247C27.4645 47.2032 27.3361 47.1586 27.1804 47.1132C27.0171 47.0649 26.8697 47.0112 26.7382 46.9522C26.6067 46.8918 26.4941 46.823 26.4004 46.7459C26.3067 46.6688 26.2349 46.5804 26.185 46.4806C26.1351 46.3809 26.1102 46.2667 26.1102 46.1382C26.1102 46.0098 26.1366 45.8911 26.1895 45.7823C26.2424 45.6734 26.318 45.579 26.4163 45.4988C26.516 45.4172 26.6347 45.3537 26.7722 45.3084C26.9098 45.263 27.0632 45.2404 27.2325 45.2404C27.4804 45.2404 27.6905 45.288 27.8629 45.3832C28.0367 45.4769 28.169 45.6001 28.2596 45.7528C28.3503 45.9039 28.3957 46.0657 28.3957 46.238H27.9604C27.9604 46.1141 27.9339 46.0045 27.881 45.9092C27.8281 45.8125 27.748 45.7369 27.6406 45.6825C27.5333 45.6266 27.3973 45.5986 27.2325 45.5986C27.0768 45.5986 26.9483 45.622 26.8471 45.6689C26.7458 45.7158 26.6702 45.7792 26.6203 45.8594C26.572 45.9395 26.5478 46.0309 26.5478 46.1337C26.5478 46.2032 26.5621 46.2667 26.5908 46.3242C26.6211 46.3801 26.6672 46.4322 26.7292 46.4806C26.7926 46.529 26.8728 46.5736 26.9695 46.6144C27.0678 46.6552 27.1849 46.6945 27.3209 46.7323C27.5084 46.7852 27.6701 46.8442 27.8062 46.9092C27.9422 46.9742 28.0541 47.0475 28.1417 47.1291C28.2309 47.2092 28.2967 47.3007 28.339 47.4034C28.3828 47.5047 28.4048 47.6196 28.4048 47.7481C28.4048 47.8826 28.3776 48.0043 28.3231 48.1131C28.2687 48.222 28.1909 48.3149 28.0896 48.392C27.9883 48.4691 27.8666 48.5288 27.7245 48.5712C27.584 48.612 27.4268 48.6324 27.2529 48.6324C27.1003 48.6324 26.9499 48.6112 26.8017 48.5689C26.6551 48.5266 26.5213 48.4631 26.4004 48.3784C26.281 48.2938 26.185 48.1895 26.1124 48.0655C26.0414 47.9401 26.0059 47.795 26.0059 47.6302H26.4412C26.4412 47.7436 26.4631 47.8411 26.507 47.9227C26.5508 48.0028 26.6105 48.0693 26.6861 48.1222C26.7632 48.1751 26.8501 48.2144 26.9468 48.2401C27.0451 48.2643 27.1471 48.2764 27.2529 48.2764C27.4056 48.2764 27.5348 48.2552 27.6406 48.2129C27.7465 48.1706 27.8266 48.1101 27.881 48.0315C27.9369 47.9529 27.9649 47.86 27.9649 47.7526Z" fill="white"/>
<path d="M25.6637 48.2311V48.5871H23.9156V48.2311H25.6637ZM24.004 45.2858V48.5871H23.5664V45.2858H24.004ZM25.4325 46.7052V47.0611H23.9156V46.7052H25.4325ZM25.6411 45.2858V45.644H23.9156V45.2858H25.6411Z" fill="white"/>
<path d="M18.8721 54.9474V52.177L19.7032 53.8392L18.8721 54.9474Z" fill="#6089FF"/>
<path d="M19.7032 53.8394L18.8721 54.9475L21.5039 54.1164L19.7032 53.8394Z" fill="#1E3A8A"/>
<path d="M21.5039 54.1162L18.8721 54.9473L20.2573 55.3629L21.5039 54.1162Z" fill="#6089FF"/>
<path d="M20.2573 55.3628L18.8721 54.9473L20.5343 57.1636L20.2573 55.3628Z" fill="#1E3A8A"/>
<path d="M20.5343 57.1636L18.8721 54.9473V56.3325L20.5343 57.1636Z" fill="#6089FF"/>
<path d="M18.8702 56.3325V54.9473L17.208 57.1636L18.8702 56.3325Z" fill="#1E3A8A"/>
<path d="M17.208 57.1636L18.8702 54.9473L17.6236 55.5013L17.208 57.1636Z" fill="#6089FF"/>
<path d="M17.6245 55.5014L18.8711 54.9473L16.2393 54.1162L17.6245 55.5014Z" fill="#1E3A8A"/>
<path d="M16.2393 54.1164L18.8711 54.9475L18.04 53.8394L16.2393 54.1164Z" fill="#6089FF"/>
<path d="M18.04 53.8392L18.8712 54.9474V52.177L18.04 53.8392Z" fill="#1E3A8A"/>
<path d="M48.8652 54.9474V52.177L49.6964 53.8392L48.8652 54.9474Z" fill="#6089FF"/>
<path d="M49.6964 53.8392L48.8652 54.9474L51.4971 54.1163L49.6964 53.8392Z" fill="#1E3A8A"/>
<path d="M51.4971 54.1162L48.8652 54.9473L50.2504 55.3629L51.4971 54.1162Z" fill="#6089FF"/>
<path d="M50.2504 55.3629L48.8652 54.9474L50.5275 57.1637L50.2504 55.3629Z" fill="#1E3A8A"/>
<path d="M50.5275 57.1637L48.8652 54.9474V56.3326L50.5275 57.1637Z" fill="#6089FF"/>
<path d="M48.8634 56.3326V54.9474L47.2012 57.1637L48.8634 56.3326Z" fill="#1E3A8A"/>
<path d="M47.2012 57.1637L48.8634 54.9474L47.6167 55.5015L47.2012 57.1637Z" fill="#6089FF"/>
<path d="M47.6176 55.5014L48.8643 54.9473L46.2324 54.1162L47.6176 55.5014Z" fill="#1E3A8A"/>
<path d="M46.2324 54.1163L48.8643 54.9474L48.0332 53.8392L46.2324 54.1163Z" fill="#6089FF"/>
<path d="M48.0342 53.8392L48.8653 54.9474V52.177L48.0342 53.8392Z" fill="#1E3A8A"/>
</svg>
